<?xml version="1.0" encoding="utf-8"?>
<!-- Generator: Adobe Illustrator 16.0.0, SVG Export Plug-In . SVG Version: 6.00 Build 0)  -->
<!DOCTYPE svg PUBLIC "-//W3C//DTD SVG 1.1//EN" "http://www.w3.org/Graphics/SVG/1.1/DTD/svg11.dtd">
<svg version="1.1" id="Calque_1" xmlns="http://www.w3.org/2000/svg" xmlns:xlink="http://www.w3.org/1999/xlink" x="0px" y="0px"
	 width="475px" height="199px" viewBox="0 13 475 199" enable-background="new 0 13 475 199" xml:space="preserve">
<g>
	<polygon fill="#3E3D40" points="232.307,85.327 221.887,85.327 221.887,86.141 226.638,86.141 226.638,98.086 227.556,98.086 
		227.556,86.141 232.307,86.141 	"/>
	<path fill="#3E3D40" d="M241.599,92.588c0-0.644-0.067-1.221-0.177-1.743c-0.115-0.522-0.299-0.973-0.542-1.337
		c-0.248-0.364-0.564-0.65-0.94-0.851c-0.383-0.188-0.826-0.292-1.35-0.292c-0.796,0-1.537,0.231-2.224,0.662
		c-0.681,0.45-1.222,1.045-1.604,1.799v-6.107h-0.912v13.367h0.912v-5.906c0.103-0.419,0.279-0.814,0.522-1.185
		c0.249-0.365,0.535-0.687,0.857-0.96c0.322-0.267,0.662-0.474,1.045-0.626c0.376-0.152,0.759-0.23,1.147-0.23
		c0.76,0,1.351,0.297,1.745,0.887c0.401,0.589,0.607,1.477,0.607,2.674v5.347h0.912V92.588L241.599,92.588z"/>
	<path fill="#3E3D40" d="M244.478,92.57c0.024-0.487,0.14-0.936,0.353-1.355c0.194-0.419,0.462-0.771,0.796-1.075
		c0.328-0.304,0.723-0.529,1.154-0.699c0.438-0.176,0.911-0.261,1.41-0.261c0.492,0,0.966,0.085,1.404,0.261
		c0.437,0.17,0.813,0.395,1.153,0.699c0.335,0.304,0.607,0.656,0.821,1.063c0.206,0.419,0.339,0.875,0.375,1.367H244.478z
		 M249.496,97.905c0.42-0.11,0.803-0.286,1.143-0.499c0.341-0.213,0.645-0.468,0.911-0.772c0.268-0.297,0.463-0.62,0.614-0.978
		l-0.808-0.219c-0.122,0.267-0.291,0.51-0.499,0.742c-0.212,0.224-0.455,0.425-0.722,0.577c-0.273,0.164-0.571,0.286-0.894,0.383
		c-0.322,0.091-0.656,0.133-0.979,0.133c-0.504,0-0.966-0.098-1.402-0.298c-0.438-0.188-0.827-0.462-1.161-0.808
		c-0.341-0.34-0.615-0.759-0.833-1.233c-0.219-0.474-0.34-0.984-0.382-1.543h8.335c0-0.024,0-0.079,0.014-0.164
		c0-0.085,0.006-0.165,0.006-0.219c0-0.626-0.122-1.215-0.358-1.787c-0.237-0.559-0.56-1.051-0.979-1.47
		c-0.418-0.419-0.898-0.76-1.463-1.009c-0.565-0.243-1.186-0.376-1.848-0.376c-0.656,0-1.275,0.134-1.841,0.376
		c-0.57,0.262-1.068,0.602-1.477,1.04c-0.414,0.438-0.741,0.948-0.978,1.537c-0.237,0.589-0.347,1.203-0.347,1.859
		c0,0.687,0.109,1.312,0.347,1.902c0.237,0.589,0.571,1.112,0.991,1.555c0.418,0.456,0.911,0.808,1.481,1.063
		c0.564,0.267,1.184,0.389,1.86,0.389C248.663,98.086,249.083,98.032,249.496,97.905z"/>
</g>
<path fill="#3E3D40" d="M255.19,76.899l0.183,0.188l0.09,0.274l-0.357-0.091l-0.092-0.273l0.092-0.097L255.19,76.899L255.19,76.899z
	 M253.015,76.444v0.273h-0.272l-0.092-0.091v-0.091l0.182-0.09L253.015,76.444L253.015,76.444z M252.376,74.335l0.183,0.091v0.09
	l-0.091,0.188l-0.091,0.091h-0.182l-0.091-0.183L252.376,74.335z M249.922,73.053l-0.092,0.273h-0.181v-0.273l0.09-0.365
	L249.922,73.053z M249.739,72.045l0.365,0.091l0.182,0.279l-0.456,0.091l-0.271-0.183v-0.189L249.739,72.045z M249.284,70.671
	l0.091,0.365l0.183,0.279l-0.092,0.183l-0.358-0.091l-0.183-0.371l-0.09-0.273l0.181-0.183L249.284,70.671z M246.288,68.562v0.092
	l-0.091,0.09l-0.273-0.182l-0.091-0.274h0.273L246.288,68.562z M221.668,60.779l0.273,0.183l0.091,0.182l-0.182,0.182l-0.183,0.091
	l-0.273-0.091l-0.091-0.182l0.091-0.182L221.668,60.779z M221.851,60.682l-0.091-0.09l0.091-0.091l-0.183-0.183l-0.091-0.273
	l0.183-0.183h0.091v0.364l0.091,0.091v0.091l0.176,0.183h-0.085L221.851,60.682z M219.396,59.862l0.182-0.182h0.183l0.358-0.097
	h0.091l0.182,0.279v0.091l-0.091,0.091h-0.182l-0.176-0.091h-0.365L219.396,59.862z M221.851,59.4l-0.183,0.091l-0.182-0.183
	l0.091-0.182l0.183,0.09h0.449l0.183,0.091l-0.359,0.091L221.851,59.4L221.851,59.4z M219.578,58.3l0.091,0.091l0.273,0.097
	l0.091,0.091l0.267,0.09h0.182l0.092-0.09l0.273,0.09h0.365l0.182-0.09l0.091-0.091V58.3l0.273-0.09l0.091,0.183v0.552h-0.091
	l-0.091-0.091h-0.182l-0.273,0.091l-0.273,0.273v0.091l-0.364,0.183l-0.183-0.091l-0.814-0.547l-0.091-0.182l-0.091-0.091
	l-0.092-0.188l0.092-0.092L219.578,58.3L219.578,58.3z M221.759,57.663h0.091v0.273l-0.091,0.091h-0.091l-0.091-0.091
	L221.759,57.663z M219.122,57.753l0.182-0.182h0.273l0.091,0.091l-0.091,0.181l-0.182,0.183h-0.183l-0.091-0.091V57.753z
	 M221.03,57.845l-0.547,0.183v0.091l0.092,0.091l-0.183,0.09l-0.091-0.09l-0.091,0.182l-0.091-0.365v-0.273l0.273-0.182l0.273-0.091
	h0.182l0.182,0.091V57.845L221.03,57.845z M220.666,57.298h-0.547l-0.085-0.097h-0.183V57.11l0.541-0.091h0.183l0.091,0.091V57.298z
	 M220.848,56.927l-0.091-0.091v-0.182l0.091-0.091v-0.091l0.182,0.183l-0.091,0.182L220.848,56.927z M220.575,56.836h-0.092v-0.274
	l0.183-0.183v0.091l0.091,0.183L220.575,56.836z M219.122,57.298l-0.273-0.188l-0.274-0.091l0.274-0.091v-0.182l0.091-0.091
	l0.182-0.365l0.091-0.09V56.01l0.273-0.091l0.182,0.371l-0.091,0.183v0.638l-0.182,0.188L219.122,57.298L219.122,57.298z
	 M219.851,56.289l-0.091-0.279v-0.182l0.273-0.274l0.085,0.091l0.091,0.183l-0.176,0.182l0.085,0.462l-0.085,0.183l-0.091-0.091
	h-0.182L219.851,56.289z M220.756,55.373l0.183,0.273l-0.091,0.182l-0.091-0.182V55.373L220.756,55.373z M220.575,54.637v0.091
	l-0.092,0.37l-0.182,0.183l-0.267-0.091l-0.091-0.183l-0.091-0.097l0.183-0.546l0.541-0.183v0.183h0.091L220.575,54.637z
	 M219.669,54.728l0.182,0.182l-0.091,0.189l-0.183,0.183l-0.091,0.182h-0.273l-0.182,0.091l-0.091-0.182v-0.274l-0.091-0.189
	l-0.091-0.09v-0.911l-0.092-0.189v-0.183l0.092-0.091h0.091l0.091,0.183v0.28l0.091,0.182l-0.091,0.273l0.182,0.182l0.182,0.091
	L219.669,54.728z M219.76,53.81h-0.364l-0.092-0.091v-0.091l0.365-0.183h0.365l-0.091,0.183L219.76,53.81z M220.301,53.355
	l0.182-0.183l-0.091-0.364h0.273l0.182-0.091l0.091,0.091l-0.091,0.273l-0.091,0.183l-0.182,0.091H220.301L220.301,53.355z
	 M220.483,51.891v-0.274l0.183-0.188l0.091,0.28l-0.182,0.183H220.483L220.483,51.891z M222.392,51.155l-0.274-0.091v-0.091h0.091
	l0.183,0.091V51.155z M220.392,50.79l-0.091,0.091l-0.182-0.091l-0.085-0.273l0.085-0.091l0.182-0.097l0.091-0.183h0.183l0.091,0.28
	l-0.183,0.182L220.392,50.79z M221.851,49.418l-0.183,0.182h-0.273l0.182-0.273h0.274V49.418z M220.848,49.235l-0.182-0.097v-0.273
	l0.182-0.273l0.182,0.273l-0.091,0.273L220.848,49.235z M221.941,47.855l0.176,0.091v0.092l-0.085,0.097h-0.091l-0.091-0.097
	l0.091-0.091V47.855z M222.118,47.218h-0.176v-0.182l0.091-0.091l0.085,0.091l0.183,0.091v0.09l-0.092,0.091L222.118,47.218z
	 M223.394,46.118l0.182,0.091v0.09l-0.091,0.091l-0.182-0.091l0.091-0.09V46.118z M261.916,83.68l-0.997-0.821l-0.82-0.917
	l-0.729-0.735l-0.723-0.639l-0.821-1.008l-0.547-0.735l-0.54-1.008l-0.73-0.918l-0.728-0.729l-0.905-0.644l-0.639-1.191
	l-0.905-0.364l-0.638-0.736l-1.088-0.82l-0.82-0.826l-0.637-1.374l-0.542-0.735l-1.909-1.556l-1.816-1.835l-0.729-0.456
	l-0.729-0.735l-0.997-1.1l-0.638-0.827l-0.815-0.729l-0.912-0.644l-0.455-0.821l-1.087-1.009l-0.547-0.735l-0.82-0.456l-0.905-0.918
	l-0.821-0.644l-0.541-1.1l-1.002-0.729l-0.814-0.461l-0.547-0.918l-1.002-0.82l-0.814-0.735l-0.82-1.008l-0.814-0.917l-0.455-0.639
	l-0.73-1.008l-0.723-0.456l-0.729-1.1l-1.453-1.471l-0.091-0.456l0.632-0.456l1.185-1.009l1.179-1.652l-1.087-1.009l-0.638-0.456
	l-0.638-1.282l-1.452-0.645l-0.723,0.37l-0.912,1.191l-0.82,1.833l-1.908-0.091l-1.088-1.191l-0.996-0.456l-0.639,0.273
	l-0.091,0.644l0.638,0.729l0.724,0.827l1.002,1.282l0.723,0.735l0.183,1.191l-1.088,0.182l-1.543,1.1l-0.729,0.639l-1.179,1.471
	l-0.638,0.911l-1.094,1.1l-1.088,1.471l0.729-0.28l0.723-0.821l0.638-0.553l1.088-0.729l1.549-1.283l0.176,0.091l-0.449,0.365
	l-1.002,2.109l-1.635,1.829l0.091,0.37l0.365-0.917l0.723-0.644l0.638-0.821l0.729-0.644l0.723-0.918l0.273-0.365l-0.091,0.917
	v0.821l-0.541,0.827l-0.547,1.281v2.109l0.183,2.017l0.632,1.008l0.547,0.912l0.729,0.462l0.273,0.546l0.541,1.561l0.638,1.192
	h1.271l0.364-1.009l0.638-1.282l0.456-1.561l-0.091-1.374l-0.364-1.647l0.456-0.37v-1.374l-0.456-2.109l-0.273-0.365h0.996
	l-0.449-1.829l-0.273-0.827l-0.273-1.099l-0.365-1.191l0.273-0.091l0.729,0.821l0.541,0.462l0.729,0.825l0.638,0.729l0.906,0.645
	l0.911,0.917l0.814,0.456l0.82,1.1l0.638,0.547l0.906,0.826l0.729,0.826l0.814,0.729l0.82,1.1l0.729,0.462l0.814,0.729l0.82,1.191
	l0.541,0.371l0.82,1.19l0.638,0.274l0.814,0.826l1.542,1.92l0.821,0.645l1.088,1.009l0.638,0.735l0.638,0.638l0.998,0.826
	l0.819,0.917l0.456,0.821l0.631,0.462l0.184,1.191l-0.723,0.917l-0.911,0.456l-0.82,0.639l-1.18,1.743v0.736l1.003-0.645
	l1.178-0.826l0.639-0.821l0.541-1.1l0.729-0.461l-0.092,0.644l-0.638,0.917v2.382l0.09,1.191l0.274,1.191l0.456,1.282l0.09-1.191
	v-2.564l0.091-2.109l0.183-1.191l0.456-0.644l0.632,0.182l0.729,1.1l0.998,0.826l0.546,0.735l1.002,0.729l0.723,0.735l0.912,1.1
	l0.541,0.456l0.82,0.735l0.997,1.009l1.002,0.826l0.638,0.182l0.724,0.729l0.729,0.917l0.814,0.456l0.729,1.1l1.271,0.645
	L261.916,83.68z"/>
<path fill="#3E3D40" d="M218.557,81.851l-0.273,0.183l-0.091,0.273l0.364-0.09l0.183-0.274l-0.092-0.091L218.557,81.851
	L218.557,81.851z M221.826,78.643l-0.183,0.456l-0.091,0.279l0.183,0.183l0.364-0.091l0.091-0.37l0.182-0.364l-0.091-0.184
	L221.826,78.643z M223.369,77.543v0.183l0.183,0.091l0.456-0.091l0.183-0.364l-0.456-0.091L223.369,77.543z M222.555,76.353
	l-0.091,0.091l-0.091,0.273l0.182,0.37l0.183-0.37l-0.091-0.273L222.555,76.353z M225.459,74.614l-0.182,0.091l-0.085,0.091
	l0.176,0.183l0.091,0.181l0.274-0.09v-0.182L225.459,74.614z M226.918,72.415h-0.183v0.273l0.183,0.091l0.182-0.091v-0.091
	L226.918,72.415z M228.461,72.045l0.091,0.091h0.091l0.182-0.182l0.182-0.365l-0.456,0.09L228.461,72.045z M260.713,38.237
	l0.365,0.365l-0.729,3.573h-0.633l-0.638-1.1l-0.905,1.1l-1.458,1.288l-0.631,1.095l-0.64,0.735l-0.819,0.918l-0.998,0.638
	l-0.729,0.826l-0.723,0.365l-0.548,1.008l-1.002,0.735l-0.632,1.009l-0.638,0.735l-0.821,0.456l-0.996,0.826l-0.638,0.911
	l-0.632,0.462l-0.911,1.009l-0.814,0.912l-0.547,0.461l-1.544,1.556l-0.82,0.734l-0.729,1.101l-0.814,0.456l-0.82,1.1l-1.453,1.464
	l-0.912,0.735l-0.632,0.735l-0.729,0.546l-0.997,0.827l-0.638,1.008l-1.635,1.646l-0.819,0.736l-0.632,0.917l-0.729,0.364
	l-0.638,1.009l-0.996,2.109v0.912l-1.094,0.097l-1.178,3.384l-1.362-1.19l-0.182,0.188l-0.365,3.481l-1.361-0.826l-0.729,0.547
	l-0.456,0.644l-1.634,1.464l-0.905,2.108l-0.547-0.091l-0.365-1.464l-0.638-0.09l-0.268-0.097l0.268-0.547l-0.45-0.644h-1.367
	l0.638-0.82l1.817-1.101l0.82-0.644l1.725-0.638l0.183-0.462l-1.635-0.638l2.723-0.918l-0.729-1.647l3.907-1.835l1.094-0.645
	l-0.183-0.456l0.456-0.273l2.272-0.735l0.541-0.456l0.82-0.735l0.814-1.191l0.82-0.546l0.547-0.917l0.905-0.553l0.729-0.821
	l0.906-1.008l0.456-0.552l1.002-0.73l0.541-0.734l0.912-1.009l0.907-0.547l0.546-1.101l0.729-0.37l0.996-1.19l0.822-0.638
	l0.637-0.826l0.814-0.546l0.729-0.736l0.632-0.826l0.729-1.009l0.82-0.456l0.905-0.917l0.819-0.547l0.541-0.917l0.912-0.735
	l1.543-1.556l0.729-0.645l0.814-1.1l1.457-1.646l0.633-0.455l0.911-1.101l0.638-0.37l0.724-0.639l1.003-1.1l0.54-0.735l-0.996-0.456
	l0.182-0.826L260.713,38.237z"/>
<g>
	<polygon fill="#3E3D40" points="121.613,131.293 121.528,130.637 121.352,129.67 121.176,129.014 120.872,128.357 120.52,127.793 
		119.997,127.003 119.56,126.48 119.08,125.951 117.81,124.9 117.239,124.554 116.625,124.201 116.017,123.897 115.142,123.503 
		113.915,123.064 113.259,122.889 112.25,122.67 110.853,122.232 109.364,121.887 108.623,121.754 107.134,121.668 106.041,121.534 
		105.384,121.399 105.074,121.272 104.552,121.012 104.072,120.568 103.719,120.003 103.592,119.432 103.677,118.733 103.98,118.12 
		104.199,117.857 104.728,117.464 104.989,117.335 105.688,117.117 106.436,116.982 107.177,116.94 108.313,116.94 109.449,117.025 
		110.154,117.068 111.157,117.286 111.904,117.464 112.25,117.554 112.906,117.773 113.216,117.9 113.873,118.161 114.529,118.557 
		114.966,118.775 115.27,118.817 115.623,118.69 116.145,118.253 116.625,117.639 118.29,115.452 118.642,114.93 119.122,114.054 
		119.383,113.568 119.383,113.131 118.989,112.741 118.423,112.348 117.81,112.036 116.978,111.558 116.321,111.296 
		115.665,110.992 114.966,110.725 114.219,110.506 113.52,110.287 112.779,110.117 111.291,109.85 110.592,109.765 110.282,109.68 
		109.625,109.588 108.313,109.461 107.614,109.461 106.958,109.503 106.259,109.588 105.293,109.765 103.98,109.941 
		103.282,110.069 102.28,110.245 101.623,110.463 100.311,110.992 99.478,111.472 98.864,111.775 98.293,112.171 97.728,112.608 
		97.023,113.265 96.586,113.744 96.24,114.273 95.93,114.881 95.492,115.847 95.274,116.503 95.104,117.068 94.97,117.725 
		94.885,118.775 94.836,119.475 94.927,120.878 95.055,121.838 95.188,122.494 95.492,123.418 95.76,124.074 96.148,124.73 
		96.543,125.295 97.291,125.909 97.856,126.304 98.512,126.699 99.083,127.088 100.572,127.835 101.229,128.139 101.885,128.357 
		102.844,128.71 103.543,128.887 104.855,129.147 109.012,129.543 109.759,129.67 110.5,129.847 111.157,130.108 111.509,130.241 
		112.074,130.68 112.293,130.94 112.646,131.554 112.73,131.9 112.779,132.647 112.512,133.304 112.293,133.607 111.855,134.045 
		111.291,134.397 110.634,134.658 110.282,134.744 109.583,134.836 106.824,135.011 106.126,134.97 105.123,134.92 104.418,134.793 
		103.719,134.573 103.063,134.354 102.061,133.869 101.447,133.565 100.791,133.213 99.387,132.253 98.907,131.9 98.427,131.815 
		97.947,132.076 97.509,132.557 97.115,133.042 96.367,134.18 95.978,134.658 94.751,135.796 94.313,136.28 94.137,136.5 
		93.918,136.889 93.961,137.198 94.313,137.594 94.793,138.074 95.322,138.511 96.106,139.124 96.634,139.562 98.032,140.522 
		98.603,140.875 99.211,141.179 99.867,141.482 100.481,141.792 101.447,142.096 102.104,142.314 102.844,142.448 103.5,142.534 
		104.509,142.624 105.123,142.666 106.083,142.666 108.186,142.534 109.188,142.491 109.802,142.448 110.762,142.356 
		111.418,142.272 112.512,142.096 113.216,141.969 114.529,141.531 115.531,141.179 116.145,140.875 116.801,140.522 
		117.372,140.127 118.247,139.562 118.77,139.075 119.298,138.554 119.736,138.031 120.258,137.241 120.562,136.67 120.957,135.796 
		121.176,135.188 121.395,134.222 121.528,133.523 121.613,132.775 121.656,132.033 	"/>
	<path fill="#3E3D40" d="M147.752,132.076l-0.437,0.48l-0.699,0.705l-0.529,0.389l-0.96,0.613l-0.614,0.262l-0.966,0.219
		l-0.699,0.092l-1.094,0.085l-0.741-0.043l-1.094-0.134l-0.656-0.127l-0.917-0.311l-0.656-0.262l-0.705-0.347l-0.607-0.394
		l-0.875-0.748l-0.529-0.522l-0.261-0.304l-0.48-0.613l-0.219-0.354l-0.353-0.613l-0.176-0.347l-0.219-0.613l-0.085-0.304
		l-0.176-0.656l-0.042-0.396l-0.134-0.698l-0.042-0.704v-0.656l0.042-0.656l0.049-0.607l0.085-0.614l0.134-0.613l0.127-0.304
		l0.219-0.656l0.395-0.924l0.134-0.263l0.346-0.57l0.48-0.656l0.486-0.521l0.699-0.614l0.614-0.395l1.002-0.523l0.699-0.261
		l1.143-0.311l0.656-0.127l0.96-0.042l0.656-0.049l1.397,0.091l0.705,0.127l0.699,0.219l0.614,0.268l1.136,0.656l0.48,0.389
		l0.656,0.704l0.438,0.48l0.614,0.79l0.352,0.565l0.48,0.967l0.176,0.607l0.261,1.312l0.042,0.705l0.043,0.741v0.742l-0.085,1.05
		l-0.091,0.656l-0.219,1.009l-0.261,0.656l-0.438,0.96l-0.395,0.614L147.752,132.076z M158.908,124.201l-0.134-0.741l-0.085-0.748
		l-0.261-1.311l-0.219-1.003l-0.219-0.614l-0.31-0.656l-0.347-0.57l-0.486-0.874l-0.347-0.565l-0.31-0.571l-0.346-0.571
		l-0.614-0.826l-0.395-0.528l-0.48-0.479l-0.48-0.438l-0.748-0.699l-0.565-0.438l-0.571-0.395l-1.44-0.832l-0.614-0.262
		l-0.917-0.353l-0.656-0.218l-0.656-0.171l-0.705-0.176l-0.741-0.134l-0.741-0.176l-0.748-0.128l-0.741-0.091l-1.051-0.045
		l-1.312-0.085l-1.404,0.085l-2.188,0.261l-0.656,0.134l-1.659,0.304l-0.656,0.176l-0.656,0.219l-0.614,0.219l-0.917,0.395
		l-0.614,0.304l-0.614,0.353l-0.565,0.353l-1.318,0.874l-0.565,0.39l-0.571,0.437l-0.741,0.614l-0.529,0.529l-0.219,0.347
		l-0.438,0.613l-0.607,0.96l-0.353,0.656l-0.176,0.395l-0.304,0.698l-0.31,1.009l-0.262,0.699l-0.218,0.656l-0.219,0.747
		l-0.176,0.741l-0.128,0.747l-0.091,0.742l-0.042,0.79l-0.042,0.741v0.741l0.042,0.747l0.042,0.656l0.134,0.96l0.134,0.656
		l0.127,0.698l0.134,0.656l0.261,0.924l0.656,1.969l0.352,0.875l0.347,0.565l0.438,0.57l0.438,0.523l1.185,1.184l0.48,0.565
		l0.523,0.57l0.571,0.481l0.565,0.437l0.663,0.395l0.656,0.353l1.397,0.607l0.741,0.311l0.705,0.218l2.357,0.784l0.656,0.176
		l0.614,0.135l1.446,0.176l1.489,0.085h2.357l0.747-0.042l0.742-0.134l0.747-0.177l0.699-0.17l0.741-0.218l1.403-0.438l0.656-0.176
		l0.875-0.352l0.614-0.262l0.656-0.353l0.565-0.347l0.79-0.528l0.522-0.389l0.571-0.438l0.48-0.438l0.699-0.746l0.438-0.48
		l0.438-0.57l0.395-0.565l1.179-1.969l0.31-0.613l0.438-0.918l0.176-0.656l0.128-0.705l0.091-0.656l0.085-1.002l0.261-1.312
		l0.091-0.656l0.085-1.009l0.042-0.698L158.908,124.201z"/>
	<polygon fill="#3E3D40" points="198.719,135.534 198.719,134.836 198.895,132.514 198.895,131.815 198.762,129.494 
		198.762,128.795 198.938,126.48 198.938,125.775 198.762,123.418 198.762,122.712 198.719,120.398 198.719,119.693 
		198.762,117.378 198.762,116.679 198.676,114.357 198.719,113.659 198.895,111.691 198.938,111.162 198.853,110.817 
		198.585,110.597 198.281,110.506 197.759,110.421 197.012,110.378 195.699,110.463 195,110.463 192.94,110.421 190.625,110.287 
		190.054,110.245 189.617,110.463 189.27,110.817 188.918,111.296 187.782,112.692 187.344,113.265 185.813,114.972 
		185.375,115.537 183.972,117.244 183.535,117.857 182.222,119.607 181.827,120.046 181.438,120.264 181.001,120.264 
		180.606,120.046 180.168,119.565 178.813,117.857 178.376,117.244 176.93,115.537 176.493,114.972 175.223,113.18 174.785,112.608 
		173.254,110.901 172.816,110.421 172.336,110.202 171.766,110.202 170.106,110.16 169.45,110.202 168.703,110.287 167.348,110.421 
		166.649,110.421 165.683,110.202 164.941,110.117 164.371,110.16 164.024,110.245 163.763,110.463 163.586,110.773 
		163.496,111.339 163.496,112.036 163.672,113.659 163.672,114.357 163.496,116.679 163.453,117.378 163.629,119.693 
		163.586,120.398 163.453,122.712 163.453,123.418 163.586,125.775 163.629,126.48 163.586,128.795 163.586,129.494 
		163.672,131.815 163.672,138.554 163.586,139.908 163.586,140.917 163.672,141.354 163.763,141.658 164.024,141.92 164.547,142.01 
		165.556,142.01 167.651,141.835 168.357,141.792 170.064,141.92 170.763,141.878 171.899,141.749 172.203,141.658 172.379,141.396 
		172.47,140.826 172.513,140.084 172.556,139.387 172.513,138.074 172.513,137.418 172.556,134.701 172.556,134.002 172.47,131.244 
		172.47,130.545 172.294,127.793 172.294,127.088 172.422,124.336 172.513,123.855 172.774,123.764 173.345,124.336 
		175.618,126.868 176.055,127.397 177.671,129.543 179.859,132.168 180.345,132.514 180.867,132.647 181.347,132.732 181.7,132.732 
		182.003,132.605 182.398,132.253 184.148,130.065 186.815,126.868 188.657,124.772 189.094,124.159 189.398,123.764 
		189.659,123.764 189.927,123.939 190.012,124.463 190.012,127.878 189.835,130.588 189.835,131.293 189.969,134.045 
		189.969,138.159 189.878,139.647 189.927,140.304 189.969,140.917 190.012,141.354 190.188,141.573 190.492,141.658 
		192.114,141.878 192.898,141.92 193.991,141.92 194.739,141.969 196.489,142.096 197.188,142.096 197.844,142.053 198.324,141.969 
		198.585,141.749 198.804,141.396 198.853,140.917 198.895,140.564 198.853,139.908 198.676,138.554 198.634,137.855 	"/>
	<polygon fill="#3E3D40" points="230.102,135.314 230.059,134.836 229.883,134.573 229.622,134.44 228.048,134.264 227.392,134.222 
		226.735,134.222 223.631,134.397 222.926,134.397 219.821,134.222 217.458,134.397 216.759,134.397 214.353,134.307 
		213.873,134.264 213.696,134.088 213.569,133.784 213.52,133.346 213.52,132.387 213.569,131.682 213.696,130.588 213.739,129.932 
		213.873,129.628 214.091,129.494 214.614,129.451 215.361,129.409 217.111,129.543 217.81,129.543 220.611,129.628 224.11,129.409 
		224.81,129.451 226.778,129.67 227.653,129.67 228.09,129.585 228.4,129.366 228.57,129.057 228.662,128.534 228.747,127.222 
		228.662,126.212 228.662,124.772 228.62,124.024 228.528,123.284 228.485,122.804 228.352,122.543 228.09,122.324 227.61,122.232 
		226.255,122.147 221.352,122.408 217.196,122.408 215.799,122.494 214.395,122.408 213.915,122.275 213.739,122.058 
		213.654,121.754 213.611,121.272 213.569,120.525 213.569,119.826 213.654,118.775 213.739,118.295 213.788,118.034 
		214.006,117.815 214.444,117.725 214.79,117.682 215.446,117.682 217.415,117.815 219.693,117.9 220.392,117.9 222.622,117.815 
		223.321,117.815 227.434,117.9 228.133,117.857 228.485,117.857 229.008,117.773 229.227,117.597 229.403,117.286 229.494,116.765 
		229.537,116.108 229.494,115.452 229.445,114.357 229.445,113.617 229.537,112.523 229.537,111.339 229.445,110.773 
		229.36,110.463 229.1,110.245 228.485,110.117 227.392,110.117 225.903,110.245 225.162,110.287 219.207,110.202 218.508,110.202 
		215.884,110.378 215.185,110.378 212.56,110.202 211.861,110.202 209.188,110.245 206.344,110.069 205.779,110.16 205.427,110.202 
		205.208,110.378 205.081,110.725 205.032,111.339 204.904,113.617 204.904,114.273 204.813,115.585 204.813,116.63 
		204.862,117.335 204.989,119.65 205.032,120.35 204.862,122.67 204.862,126.389 204.771,128.753 204.813,129.451 204.947,131.772 
		204.989,132.472 204.947,134.793 204.947,135.492 204.771,137.812 204.771,138.468 204.728,139.124 204.771,139.823 
		204.862,140.826 204.947,141.312 205.081,141.616 205.384,141.835 205.907,141.92 207.396,142.01 211.163,141.792 211.861,141.792 
		214.134,141.969 217.154,141.969 217.852,141.92 220.131,141.749 220.83,141.7 223.145,141.878 223.849,141.878 229.579,141.7 
		229.798,141.531 229.975,141.222 230.017,140.783 230.193,138.42 230.235,137.722 	"/>
	<polygon fill="#3E3D40" points="260.968,112.305 260.919,111.648 260.919,111.339 260.835,110.817 260.615,110.506 
		260.312,110.336 259.784,110.245 259.438,110.202 258.689,110.16 257.25,110.245 254.012,110.245 250.73,110.287 250.024,110.287 
		247.491,110.245 244.252,110.463 243.554,110.463 240.971,110.245 240.272,110.245 237.733,110.421 237.035,110.421 
		235.412,110.287 234.41,110.287 233.972,110.378 233.711,110.506 233.535,110.817 233.401,111.381 233.358,112.085 
		233.492,113.744 233.492,114.4 233.401,115.713 233.443,116.412 233.443,116.722 233.535,117.159 233.711,117.421 233.972,117.597 
		234.452,117.682 234.805,117.725 235.461,117.725 236.463,117.682 237.211,117.639 237.952,117.682 239.131,117.773 
		239.92,117.773 241.323,117.682 241.98,117.682 242.418,117.773 242.545,118.12 242.545,118.733 242.637,121.315 242.637,124.64 
		242.679,125.337 242.855,127.962 242.855,128.668 242.807,131.244 242.807,131.949 242.765,134.573 242.765,137.855 
		242.722,138.554 242.587,140.388 242.587,141.136 242.679,141.616 242.939,141.749 243.463,141.792 245.432,141.92 246.137,141.92 
		248.105,141.792 248.847,141.835 249.94,141.969 250.772,142.01 251.338,141.92 251.557,141.7 251.69,141.179 251.647,140.479 
		251.43,138.511 251.387,137.855 251.472,135.273 251.472,131.244 251.387,128.668 251.43,127.962 251.604,125.337 251.647,124.64 
		251.472,122.014 251.472,121.315 251.647,118.733 251.69,118.161 251.866,117.9 252.304,117.773 252.607,117.725 253.264,117.725 
		254.357,117.815 255.062,117.815 257.073,117.682 257.772,117.725 259.085,117.857 259.784,117.857 260.312,117.773 
		260.573,117.554 260.701,117.244 260.792,116.722 260.835,116.369 260.877,115.67 260.835,114.357 260.877,113.703 	"/>
	<polygon fill="#3E3D40" points="294.715,134.793 294.757,132.472 294.757,131.772 294.715,129.451 294.715,128.753 294.8,126.432 
		294.8,125.732 294.977,123.418 294.977,122.712 294.8,120.398 294.8,119.693 294.891,117.378 294.891,116.679 294.757,114.357 
		294.8,113.659 294.934,111.909 294.934,111.253 294.757,110.64 294.411,110.287 293.84,110.202 293.445,110.202 292.746,110.16 
		290.777,110.287 290.079,110.287 287.716,110.16 287.017,110.16 286.487,110.245 286.142,110.64 286.008,111.339 286.051,114.183 
		286.051,114.881 286.142,117.725 286.142,118.43 285.966,121.272 285.923,121.754 285.747,122.105 285.267,122.366 
		284.957,122.408 284.301,122.408 281.718,122.232 278.923,122.147 278.267,122.19 276.602,122.451 275.988,122.451 
		275.374,122.408 274.937,122.366 274.718,122.19 274.59,121.838 274.548,121.315 274.548,117.725 274.59,114.881 274.633,114.183 
		274.767,112.214 274.767,111.558 274.718,111.253 274.548,110.682 274.195,110.336 273.624,110.245 272.968,110.202 
		272.27,110.202 270.52,110.336 269.82,110.336 267.98,110.245 267.324,110.245 266.668,110.287 266.103,110.421 265.707,110.725 
		265.531,111.253 265.531,112.171 265.75,113.659 265.792,114.357 265.841,116.679 265.792,117.378 265.665,119.693 
		265.622,120.398 265.622,123.418 265.665,125.732 265.665,126.432 265.792,128.753 265.792,129.451 265.75,131.772 265.75,132.472 
		265.665,134.793 265.665,138.468 265.573,139.78 265.573,140.479 265.622,140.875 265.707,141.354 265.883,141.573 
		266.229,141.749 266.716,141.835 267.062,141.835 267.761,141.878 269.82,141.749 270.52,141.792 272.36,141.969 273.017,142.01 
		273.673,141.969 274.237,141.835 274.633,141.482 274.81,140.875 274.81,139.866 274.633,137.982 274.59,137.283 274.676,134.44 
		274.676,133.741 274.633,130.94 274.676,130.326 274.894,129.932 275.289,129.804 275.86,129.762 278.218,129.889 281.718,129.98 
		282.423,129.932 284.173,129.804 285.224,129.804 285.704,129.98 285.88,130.326 285.88,130.94 285.966,133.741 285.966,134.44 
		285.88,137.283 285.923,137.982 286.099,140.826 286.184,141.439 286.445,141.792 287.06,141.92 287.758,141.92 290.079,141.749 
		290.777,141.749 293.142,141.878 293.84,141.792 294.32,141.749 294.63,141.439 294.849,140.875 294.891,140.261 294.849,139.604 
		294.757,138.511 294.715,137.812 	"/>
	<polygon fill="#3E3D40" points="309.74,132.514 309.74,128.71 309.832,126.347 309.832,125.647 309.79,123.284 309.79,122.585 
		309.832,120.179 309.832,119.475 309.79,117.117 309.79,112.827 309.74,112.128 309.655,110.992 309.613,110.506 309.521,110.245 
		309.042,110.16 306.332,110.16 304.314,110.245 303.615,110.245 302.564,110.202 301.908,110.245 301.562,110.245 301.124,110.287 
		300.863,110.463 300.729,110.943 300.814,113.349 300.814,117.117 300.772,119.475 300.772,120.179 300.814,122.585 
		300.814,126.347 300.863,128.71 300.863,129.409 300.991,131.815 300.948,132.514 300.814,134.878 300.772,135.577 
		300.905,137.939 300.905,138.596 300.948,139.252 300.948,139.951 301.033,141.046 301.033,141.482 301.167,141.616 301.428,141.7 
		303.615,141.878 306.332,141.878 308.562,141.92 309.176,141.878 309.521,141.749 309.655,141.531 309.655,141.046 
		309.698,138.639 309.698,137.939 309.875,135.577 309.875,134.878 	"/>
	<polygon fill="#3E3D40" points="345.803,114.534 345.887,113.836 345.978,112.475 345.936,111.732 345.887,111.339 
		345.803,110.725 345.541,110.421 345.23,110.287 344.751,110.202 343.748,110.16 343.092,110.117 341.604,110.202 340.904,110.202 
		338.936,110.069 338.188,110.117 337.794,110.117 337.271,110.202 336.967,110.378 336.792,110.725 336.657,111.296 
		336.657,112.389 336.792,114.007 336.834,114.71 336.657,117.378 336.657,118.077 336.834,120.743 336.834,121.449 336.7,123.326 
		336.749,124.024 337.053,125.866 337.053,126.347 336.749,126.565 336.396,126.522 336.044,126.212 334.471,124.024 
		334.032,123.503 332.368,121.399 331.979,120.878 330.399,118.69 329.962,118.161 328.346,116.022 327.908,115.495 
		326.292,113.399 325.854,112.87 324.014,110.901 323.752,110.506 323.533,110.336 323.011,110.287 319.725,110.287 
		318.412,110.202 317.1,110.287 316.618,110.378 316.357,110.506 316.224,110.817 316.14,111.296 316.054,111.952 316.005,112.608 
		316.005,113.617 316.054,114.314 316.224,116.679 316.272,117.378 316.097,119.693 316.097,120.398 316.272,122.712 
		316.272,125.732 316.224,126.432 316.097,128.753 316.054,129.451 315.963,134.793 315.963,135.492 316.097,137.812 
		316.054,138.511 315.963,139.951 315.963,140.607 316.005,140.917 316.097,141.354 316.272,141.658 316.618,141.878 317.1,141.969 
		317.756,142.01 318.46,142.01 320.252,141.92 320.951,141.92 322.963,141.969 323.71,141.92 324.056,141.878 324.585,141.792 
		324.889,141.7 325.198,141.396 325.325,140.826 325.283,140.127 325.021,138.378 324.979,137.679 325.107,135.23 325.107,134.525 
		325.064,132.076 325.064,131.377 325.021,129.19 325.021,128.491 325.107,126.304 325.241,125.775 325.545,125.647 
		325.939,125.993 327.556,128.139 327.993,128.668 329.701,130.764 330.096,131.293 331.627,133.565 332.021,134.137 
		333.729,136.232 334.166,136.762 335.874,138.906 336.263,139.471 336.919,140.742 337.313,141.312 337.843,141.7 338.365,141.92 
		338.936,142.053 339.635,142.053 340.729,142.01 341.427,141.969 343.656,141.878 344.271,141.835 344.665,141.7 345.104,141.396 
		345.45,140.917 345.625,140.388 345.668,139.78 345.625,137.241 345.76,135.14 345.803,134.397 345.845,134.045 345.845,133.304 
		345.76,127.525 345.76,126.826 345.625,124.293 345.625,117.815 345.668,117.117 	"/>
	<polygon fill="#3E3D40" points="381.565,123.545 381.432,122.932 381.347,122.67 381.037,122.494 380.381,122.366 380.035,122.324 
		379.33,122.366 377.537,122.585 376.838,122.585 373.339,122.366 370.495,122.494 368.483,122.494 367.737,122.543 366.644,122.67 
		366.12,122.762 365.901,122.98 365.769,123.46 365.769,124.377 365.859,125.034 365.944,126.347 365.901,127.44 365.944,128.139 
		365.987,128.491 366.078,129.014 366.248,129.232 366.516,129.324 367.998,129.585 368.703,129.628 369.706,129.628 
		370.404,129.585 371.413,129.451 372.111,129.409 373.162,129.409 373.643,129.494 373.818,129.762 373.818,130.503 
		373.91,131.815 373.91,132.472 373.861,132.866 373.861,133.346 373.733,133.607 373.296,133.918 372.641,134.222 371.941,134.482 
		369.578,135.054 368.922,135.188 368.217,135.273 367.518,135.273 366.776,135.23 366.029,135.14 364.718,134.836 364.062,134.573 
		363.186,134.088 362.621,133.65 361.831,132.909 361.394,132.387 360.871,131.597 360.561,130.982 360.123,129.932 
		359.904,129.232 359.687,128.23 359.559,127.525 359.467,126.48 359.467,125.732 359.516,124.991 359.644,124.293 359.904,122.98 
		360.081,122.324 360.3,121.619 360.561,120.963 360.913,120.35 361.309,119.783 361.746,119.213 362.226,118.733 362.797,118.295 
		363.362,117.9 364.675,117.286 365.373,117.117 366.516,117.025 367.214,116.982 367.518,116.982 369.578,117.117 370.319,117.244 
		371.066,117.421 371.765,117.682 372.464,117.991 373.077,118.338 373.643,118.69 374.214,119.086 374.694,119.39 375.046,119.347 
		375.308,119.171 375.66,118.909 376.14,118.557 376.662,118.12 377.452,117.421 378.674,116.193 379.111,115.713 379.506,115.148 
		379.768,114.753 379.9,114.443 379.9,114.14 379.64,113.836 379.379,113.617 378.892,113.265 378.674,113.045 378.193,112.692 
		377.714,112.389 377.494,112.256 376.924,111.867 376.268,111.472 374.694,110.682 374.038,110.463 373.077,110.16 
		372.421,109.983 371.455,109.807 370.841,109.68 369.839,109.546 369.183,109.503 368.217,109.412 367.518,109.461 
		366.516,109.546 365.859,109.631 365.203,109.765 363.934,109.941 362.312,110.202 361.612,110.378 360.871,110.597 
		360.123,110.901 359.467,111.296 358.027,112.128 357.498,112.475 356.977,112.87 356.405,113.307 355.269,114.273 
		354.746,114.753 354.261,115.275 353.78,115.847 353.386,116.369 352.82,117.159 352.51,117.773 352.206,118.514 351.902,119.213 
		351.685,119.869 351.465,120.568 351.246,121.315 351.028,122.014 350.852,122.762 350.718,123.503 350.633,123.855 
		350.499,125.824 350.499,126.48 350.542,127.137 350.633,127.835 350.809,128.795 350.895,129.494 351.028,130.241 351.155,130.94 
		351.375,131.682 351.593,132.387 351.902,133.042 352.206,133.741 353.301,135.71 353.695,136.323 354.175,136.979 
		354.612,137.502 355.312,138.201 355.791,138.639 356.32,139.034 356.843,139.471 357.414,139.866 357.937,140.261 
		358.811,140.742 359.383,141.046 360.257,141.354 360.913,141.573 361.569,141.749 363.101,142.188 363.757,142.356 
		364.456,142.491 365.154,142.576 366.163,142.666 367.518,142.752 368.174,142.709 369.924,142.491 370.58,142.356 
		371.193,142.272 372.202,142.139 372.858,142.01 373.558,141.878 374.214,141.7 375.223,141.396 375.83,141.179 376.486,140.917 
		377.361,140.479 377.933,140.127 378.236,139.951 378.807,139.562 379.068,139.295 379.597,138.814 380.339,138.074 
		380.733,137.502 381.08,136.937 381.347,136.5 381.39,136.014 381.39,133.432 381.475,131.597 381.475,127.482 381.65,124.64 
		381.608,123.897 	"/>
	<path fill="#3E3D40" d="M192.94,165.701h-0.699l-2.273-0.176l-0.528-0.085l-0.304-0.134l-0.091-0.262l-0.042-0.479l0.091-2.407
		l-0.049-0.746l-0.085-0.741l-0.085-0.705l-0.049-1.003l0.049-0.479l0.261-0.268l0.304-0.128l0.528-0.042l2.23-0.134h0.699
		l2.187,0.042l0.699,0.092l0.967,0.218l0.607,0.262l0.486,0.395l0.389,0.523l0.311,0.656l0.176,0.656l0.085,0.741l0.043,0.746
		l-0.043,0.699l-0.176,0.698l-0.304,0.656l-0.437,0.528l-0.529,0.304l-0.564,0.219l-0.967,0.177L192.94,165.701z M209.261,181.974
		l-0.219-0.48l-0.395-0.479l-1.355-1.574l-0.438-0.529l-1.574-2.187l-0.438-0.522l-1.573-2.146l-0.395-0.521l-1.574-2.236
		l-0.176-0.346l0.346-0.134l0.571-0.128l0.571-0.31l0.523-0.305l0.875-0.48l0.48-0.394l0.699-0.698l0.395-0.486l0.395-0.522
		l0.395-0.571l0.395-0.656l0.304-0.656l0.261-0.656l0.176-0.699l0.134-0.741l0.085-0.746l0.043-0.699v-0.698l-0.085-0.966
		l-0.042-0.699l-0.134-0.698l-0.219-0.699l-0.304-0.655l-0.31-0.614l-0.522-0.832l-0.395-0.565l-0.614-0.876l-0.438-0.527
		l-0.438-0.438l-0.48-0.394l-0.833-0.566l-0.565-0.353l-0.656-0.304l-0.705-0.261l-0.656-0.267l-0.656-0.219l-0.918-0.261
		l-0.656-0.129L197.407,151h-1.666l-2.886-0.17h-0.699l-2.977,0.17l-5.207-0.17l-1.969-0.09l-0.656,0.042l-0.353,0.048l-0.522,0.127
		l-0.261,0.353l-0.134,0.565l-0.042,0.268l-0.043,0.656l0.085,1.439v0.699l0.042,2.363v0.698l-0.085,2.321v0.698l-0.134,2.363v0.699
		l0.134,2.363v0.699l-0.134,2.363v0.698l0.048,2.321l0.042,0.699l0.128,2.363v0.699l-0.17,2.363l-0.048,0.698l-0.085,1.143
		l0.043,0.656l0.042,0.608l0.091,0.437l0.262,0.177l0.522,0.09l2.017,0.128h0.699l2.011-0.128l2.102,0.128h0.699l0.48-0.128
		l0.219-0.218l0.091-0.528l0.042-0.698v-0.698l-0.042-1.052l-0.049-0.698l-0.17-2.448l-0.049-0.706l0.091-2.406l0.127-0.564
		l0.353-0.268l0.571-0.042l1.398,0.091l0.522,0.042l0.267,0.128l0.304,0.353l1.398,1.884l0.395,0.522l1.228,2.012l0.395,0.528
		l1.397,1.877l0.395,0.529l1.397,1.969l0.353,0.346l0.395,0.177h0.565l1.968-0.086h0.705l2.406,0.043h3.062l0.565-0.176
		L209.261,181.974z"/>
	<path fill="#3E3D40" d="M231.663,169.42l-0.346,0.347l-0.571,0.176l-2.06-0.128h-2.752l-0.614-0.09l-0.48-0.219l-0.134-0.522
		l0.134-0.656l1.136-2.935l0.261-0.657l1.185-2.971l0.438-0.438l0.48-0.135l0.565,0.135l0.438,0.304l0.219,0.57l0.875,2.583
		l0.219,0.656l0.966,2.972l0.176,0.57L231.663,169.42z M245.535,179.13l-1.185-2.753l-0.304-0.613l-1.052-2.061l-1.354-2.709
		l-0.261-0.614l-0.875-2.188l-0.268-0.614l-0.96-2.14l-0.261-0.613l-0.966-2.103l-0.262-0.614l-0.784-2.229l-0.268-0.614
		l-0.96-2.144l-0.261-0.607l-1.094-2.061l-0.261-0.657l-0.614-1.707l-0.218-0.564l-0.48-0.353l-0.747-0.128l-2.011-0.049h-3.415
		l-2.011,0.092l-0.656,0.127l-0.438,0.267l-0.219,0.48l-0.79,1.792l-0.261,0.656l-0.833,2.012l-0.304,0.699l-0.96,1.968l-0.31,0.705
		l-1.221,2.624l-1.58,3.584l-0.261,0.614l-1.179,2.448l-0.268,0.656l-1.002,2.364l-0.261,0.656l-1.143,2.448l-0.261,0.613
		l-1.094,2.448l-0.261,0.656l-0.614,1.362l-0.261,0.698l-0.085,0.346l-0.049,0.571l0.353,0.48l0.522,0.261l0.571-0.042l2.71-0.177
		h0.705l2.534,0.134l0.705,0.043l0.656-0.262l0.48-0.571l0.261-0.698l1.009-2.972l0.262-0.529l0.346-0.218l0.571-0.085h2.011
		l0.656-0.042h0.656l2.625,0.042l3.281,0.085h0.705l2.625,0.177l0.523,0.041l0.395,0.092l0.304,0.438l1.355,3.67l0.218,0.487
		l0.268,0.346l0.564,0.176l2.717-0.176h1.969l0.656,0.042l1.003,0.092h0.613l0.57-0.092l0.479-0.219l0.304-0.479l-0.127-0.614
		L245.535,179.13z"/>
	<polygon fill="#3E3D40" points="259.917,173.224 259.917,169.42 260.008,167.057 260.008,166.357 259.966,163.995 259.966,163.296 
		260.008,160.889 260.008,160.185 259.966,157.827 259.966,153.536 259.917,152.838 259.832,151.702 259.789,151.215 
		259.698,150.954 259.219,150.869 256.508,150.869 254.491,150.954 253.793,150.954 252.742,150.911 252.086,150.954 
		251.739,150.954 251.301,150.997 251.04,151.173 250.906,151.653 250.991,154.059 250.991,157.827 250.949,160.185 
		250.949,160.889 250.991,163.296 250.991,167.057 251.04,169.42 251.04,170.119 251.168,172.524 251.125,173.224 250.991,175.587 
		250.949,176.287 251.083,178.649 251.083,179.306 251.125,179.962 251.125,180.661 251.21,181.755 251.21,182.191 251.344,182.326 
		251.604,182.41 253.793,182.587 256.508,182.587 258.738,182.63 259.352,182.587 259.698,182.459 259.832,182.24 259.832,181.755 
		259.875,179.349 259.875,178.649 260.051,176.287 260.051,175.587 	"/>
	<polygon fill="#3E3D40" points="295.979,155.244 296.064,154.546 296.154,153.184 296.112,152.442 296.064,152.048 
		295.979,151.435 295.718,151.13 295.408,150.997 294.928,150.911 293.925,150.869 293.269,150.827 291.78,150.911 291.081,150.911 
		289.112,150.778 288.365,150.827 287.97,150.827 287.447,150.911 287.144,151.088 286.968,151.435 286.834,152.006 
		286.834,153.099 286.968,154.716 287.01,155.421 286.834,158.088 286.834,158.787 287.01,161.454 287.01,162.16 286.876,164.036 
		286.926,164.735 287.229,166.577 287.229,167.057 286.926,167.274 286.572,167.232 286.22,166.922 284.646,164.735 
		284.209,164.213 282.544,162.11 282.155,161.588 280.575,159.4 280.138,158.871 278.521,156.733 278.084,156.204 276.468,154.108 
		276.03,153.579 274.189,151.61 273.928,151.215 273.71,151.046 273.187,150.997 269.9,150.997 268.588,150.911 267.275,150.997 
		266.795,151.088 266.533,151.215 266.4,151.526 266.315,152.006 266.229,152.662 266.181,153.318 266.181,154.327 266.229,155.025 
		266.4,157.39 266.448,158.088 266.272,160.403 266.272,161.108 266.448,163.423 266.448,166.442 266.4,167.142 266.272,169.463 
		266.229,170.161 266.139,175.502 266.139,176.201 266.272,178.521 266.229,179.22 266.139,180.661 266.139,181.317 
		266.181,181.627 266.272,182.063 266.448,182.367 266.795,182.587 267.275,182.679 267.932,182.72 268.637,182.72 270.428,182.63 
		271.127,182.63 273.139,182.679 273.886,182.63 274.231,182.587 274.761,182.501 275.064,182.41 275.374,182.106 275.501,181.535 
		275.459,180.837 275.197,179.087 275.155,178.389 275.283,175.939 275.283,175.235 275.24,172.786 275.24,172.087 275.197,169.899 
		275.197,169.2 275.283,167.014 275.417,166.485 275.721,166.357 276.115,166.704 277.731,168.849 278.169,169.378 279.877,171.474 
		280.271,172.003 281.803,174.275 282.197,174.846 283.905,176.941 284.343,177.471 286.051,179.615 286.438,180.18 
		287.095,181.451 287.49,182.022 288.02,182.41 288.541,182.63 289.112,182.763 289.812,182.763 290.905,182.72 291.604,182.679 
		293.834,182.587 294.447,182.544 294.842,182.41 295.28,182.106 295.627,181.627 295.803,181.098 295.845,180.49 295.803,177.95 
		295.937,175.849 295.979,175.107 296.021,174.755 296.021,174.013 295.937,168.236 295.937,167.536 295.803,165.003 
		295.803,158.525 295.845,157.827 	"/>
</g>
</svg>
