<?xml version="1.0" encoding="utf-8"?>
<!-- Generator: Adobe Illustrator 16.0.0, SVG Export Plug-In . SVG Version: 6.00 Build 0)  -->
<!DOCTYPE svg PUBLIC "-//W3C//DTD SVG 1.1//EN" "http://www.w3.org/Graphics/SVG/1.1/DTD/svg11.dtd">
<svg version="1.1" id="Calque_1" xmlns="http://www.w3.org/2000/svg" xmlns:xlink="http://www.w3.org/1999/xlink" x="0px" y="0px"
	 width="380px" height="250px" viewBox="0 0 380 250" enable-background="new 0 0 380 250" xml:space="preserve">
<g>
	<polygon fill="#EDE4C6" points="183.851,94.879 171.174,94.879 171.174,95.87 176.955,95.87 176.955,110.4 178.07,110.4 
		178.07,95.87 183.851,95.87 	"/>
	<path fill="#EDE4C6" d="M195.151,103.712c0-0.784-0.081-1.486-0.215-2.122c-0.14-0.635-0.362-1.183-0.657-1.626
		c-0.303-0.443-0.688-0.791-1.146-1.035c-0.465-0.229-1.004-0.355-1.641-0.355c-0.969,0-1.869,0.281-2.705,0.806
		c-0.828,0.547-1.486,1.271-1.951,2.188V94.14h-1.107v16.26h1.107v-7.184c0.125-0.51,0.341-0.99,0.637-1.441
		c0.303-0.444,0.65-0.835,1.042-1.168c0.392-0.325,0.806-0.576,1.271-0.761c0.459-0.185,0.924-0.281,1.396-0.281
		c0.924,0,1.643,0.362,2.122,1.079c0.487,0.717,0.739,1.796,0.739,3.252v6.504h1.107L195.151,103.712L195.151,103.712z"/>
	<path fill="#EDE4C6" d="M198.654,103.689c0.029-0.591,0.17-1.138,0.43-1.648c0.236-0.51,0.562-0.938,0.968-1.308
		c0.399-0.37,0.88-0.643,1.405-0.85c0.531-0.214,1.107-0.318,1.715-0.318c0.599,0,1.175,0.104,1.707,0.318
		c0.531,0.207,0.99,0.48,1.404,0.85c0.405,0.37,0.738,0.798,0.997,1.293c0.251,0.51,0.413,1.064,0.458,1.663H198.654z
		 M204.76,110.179c0.51-0.133,0.976-0.347,1.389-0.606c0.414-0.259,0.784-0.569,1.107-0.939c0.326-0.362,0.562-0.754,0.748-1.19
		l-0.982-0.266c-0.148,0.325-0.354,0.621-0.605,0.901c-0.26,0.273-0.556,0.518-0.881,0.702c-0.332,0.2-0.693,0.347-1.086,0.466
		c-0.393,0.111-0.798,0.163-1.189,0.163c-0.613,0-1.176-0.118-1.706-0.362c-0.533-0.229-1.007-0.562-1.412-0.983
		c-0.414-0.414-0.747-0.924-1.015-1.5c-0.266-0.577-0.412-1.197-0.465-1.877h10.141c0-0.029,0-0.096,0.016-0.199
		c0-0.104,0.008-0.2,0.008-0.266c0-0.761-0.147-1.478-0.437-2.173c-0.288-0.68-0.681-1.279-1.19-1.789
		c-0.51-0.51-1.094-0.924-1.779-1.227c-0.688-0.295-1.441-0.458-2.248-0.458c-0.799,0-1.551,0.163-2.239,0.458
		c-0.694,0.317-1.302,0.731-1.796,1.264c-0.504,0.532-0.901,1.153-1.189,1.87c-0.287,0.717-0.422,1.463-0.422,2.262
		c0,0.835,0.135,1.596,0.422,2.313c0.288,0.717,0.694,1.353,1.205,1.892c0.51,0.554,1.108,0.983,1.803,1.293
		c0.688,0.325,1.44,0.473,2.264,0.473C203.746,110.4,204.256,110.334,204.76,110.179z"/>
</g>
<path fill="#EDE4C6" d="M211.381,84.628l0.224,0.229l0.109,0.333l-0.438-0.111l-0.109-0.333l0.109-0.119L211.381,84.628
	L211.381,84.628z M208.735,84.074v0.333h-0.332l-0.11-0.111v-0.111l0.222-0.11L208.735,84.074L208.735,84.074z M207.959,81.509
	l0.222,0.111v0.111l-0.109,0.229l-0.111,0.111h-0.223l-0.11-0.222L207.959,81.509z M204.973,79.949l-0.11,0.333h-0.222v-0.333
	l0.11-0.443L204.973,79.949z M204.751,78.723l0.443,0.11l0.222,0.34l-0.554,0.111l-0.332-0.222v-0.229L204.751,78.723z
	 M204.196,77.052l0.11,0.444l0.224,0.339l-0.111,0.222l-0.438-0.111l-0.222-0.45l-0.11-0.333l0.223-0.222L204.196,77.052z
	 M200.553,74.488v0.111l-0.11,0.11l-0.332-0.222L200,74.154h0.333L200.553,74.488z M170.604,65.02l0.334,0.222l0.11,0.222
	l-0.222,0.222l-0.223,0.111l-0.332-0.111l-0.111-0.222l0.111-0.222L170.604,65.02z M170.827,64.901l-0.11-0.111l0.11-0.11
	l-0.223-0.222l-0.111-0.332l0.223-0.222h0.109v0.443l0.111,0.111v0.111l0.215,0.221h-0.104L170.827,64.901z M167.841,63.904
	l0.223-0.222h0.221l0.437-0.119h0.111l0.222,0.34v0.111l-0.111,0.111h-0.222l-0.214-0.111h-0.443L167.841,63.904z M170.827,63.342
	l-0.223,0.111l-0.222-0.222l0.11-0.222l0.223,0.11h0.546l0.222,0.111l-0.437,0.111L170.827,63.342L170.827,63.342z M168.063,62.004
	l0.11,0.111l0.332,0.118l0.11,0.111l0.326,0.11h0.221l0.111-0.11l0.334,0.11h0.442l0.222-0.11l0.111-0.111v-0.229l0.333-0.11
	l0.11,0.222v0.672h-0.11l-0.11-0.111h-0.223l-0.333,0.111l-0.333,0.332v0.111l-0.443,0.222l-0.222-0.111l-0.991-0.666l-0.111-0.222
	l-0.11-0.11l-0.11-0.229l0.11-0.111H168.063L168.063,62.004z M170.717,61.229h0.11v0.332l-0.11,0.111h-0.11l-0.111-0.111
	L170.717,61.229z M167.508,61.339l0.222-0.222h0.334l0.11,0.111l-0.11,0.221l-0.223,0.222h-0.223l-0.11-0.111V61.339z
	 M169.829,61.45l-0.665,0.222v0.111l0.11,0.11l-0.222,0.11l-0.11-0.11l-0.111,0.222l-0.111-0.443v-0.333l0.333-0.222l0.333-0.111
	h0.223l0.221,0.111V61.45L169.829,61.45z M169.386,60.785h-0.666l-0.104-0.118h-0.223v-0.11l0.658-0.111h0.223l0.11,0.111
	L169.386,60.785L169.386,60.785z M169.608,60.333l-0.111-0.111v-0.221l0.111-0.111v-0.111l0.221,0.223l-0.11,0.221L169.608,60.333z
	 M169.274,60.223h-0.11v-0.332l0.222-0.222v0.111l0.109,0.223L169.274,60.223z M167.508,60.785l-0.333-0.229l-0.333-0.111
	l0.333-0.111v-0.221l0.111-0.11l0.222-0.444l0.11-0.11V59.22l0.334-0.111l0.222,0.451l-0.11,0.222v0.777l-0.223,0.229h-0.333V60.785
	z M168.396,59.558l-0.111-0.34v-0.222l0.332-0.333l0.104,0.111l0.111,0.221l-0.214,0.222l0.104,0.562l-0.104,0.223l-0.111-0.111
	h-0.221L168.396,59.558z M169.495,58.442l0.223,0.333l-0.111,0.221l-0.111-0.221V58.442L169.495,58.442z M169.274,57.548v0.111
	l-0.11,0.451l-0.222,0.221l-0.326-0.11l-0.11-0.222l-0.11-0.118l0.221-0.665l0.658-0.222v0.222h0.111L169.274,57.548z
	 M168.174,57.659l0.222,0.221l-0.111,0.229l-0.221,0.221l-0.111,0.222h-0.334l-0.221,0.111l-0.111-0.222v-0.333l-0.111-0.229
	l-0.111-0.111V56.66l-0.111-0.229v-0.222l0.111-0.111h0.111l0.111,0.223v0.34l0.111,0.222l-0.111,0.333l0.222,0.222l0.222,0.111
	L168.174,57.659z M168.284,56.542h-0.443l-0.111-0.111V56.32l0.444-0.223h0.442l-0.11,0.223L168.284,56.542z M168.942,55.988
	l0.221-0.222l-0.11-0.443h0.333l0.223-0.111l0.11,0.111l-0.11,0.332l-0.111,0.222l-0.221,0.11L168.942,55.988L168.942,55.988z
	 M169.163,54.208v-0.333l0.223-0.229l0.109,0.34l-0.221,0.223L169.163,54.208L169.163,54.208z M171.485,53.312l-0.334-0.111v-0.11
	h0.111l0.223,0.11V53.312z M169.053,52.869l-0.11,0.111l-0.223-0.111l-0.104-0.333l0.104-0.111l0.223-0.118l0.11-0.222h0.222
	l0.111,0.34l-0.223,0.221L169.053,52.869z M170.827,51.199l-0.223,0.222h-0.332l0.221-0.333h0.334V51.199z M169.608,50.977
	l-0.223-0.118v-0.332l0.223-0.333l0.221,0.333l-0.11,0.332L169.608,50.977z M170.938,49.299l0.213,0.111v0.111l-0.104,0.118h-0.111
	l-0.111-0.118l0.111-0.111v-0.111H170.938z M171.151,48.522h-0.213v-0.221l0.11-0.111l0.104,0.111l0.222,0.11v0.11l-0.111,0.111
	L171.151,48.522z M172.704,47.186l0.222,0.11v0.11l-0.11,0.111l-0.223-0.111l0.111-0.11V47.186z M219.563,92.876l-1.213-0.998
	l-0.998-1.116l-0.886-0.894l-0.88-0.776l-0.998-1.227l-0.665-0.895l-0.657-1.226l-0.888-1.117l-0.888-0.887l-1.102-0.783
	l-0.775-1.449l-1.102-0.443l-0.775-0.895l-1.323-0.998l-0.998-1.004l-0.775-1.671l-0.657-0.895l-2.322-1.893l-2.209-2.231
	l-0.887-0.554l-0.887-0.895l-1.213-1.337l-0.775-1.005L194.7,66.8l-1.108-0.783l-0.555-0.998l-1.322-1.227l-0.665-0.894
	l-0.998-0.554l-1.102-1.117l-0.997-0.783l-0.658-1.338l-1.22-0.887l-0.99-0.562l-0.665-1.116l-1.22-0.999l-0.99-0.894l-0.998-1.227
	l-0.99-1.116l-0.554-0.777l-0.888-1.227l-0.879-0.554l-0.887-1.337l-1.767-1.789l-0.111-0.554l0.769-0.554l1.441-1.227l1.434-2.01
	l-1.322-1.227l-0.776-0.554l-0.776-1.559l-1.767-0.784l-0.879,0.451l-1.108,1.449l-0.998,2.225l-2.321-0.111l-1.323-1.448
	l-1.212-0.555l-0.776,0.333l-0.111,0.784l0.777,0.886l0.879,1.005l1.221,1.56l0.879,0.894l0.222,1.449l-1.323,0.222l-1.877,1.337
	l-0.887,0.776l-1.434,1.789l-0.776,1.109l-1.33,1.337l-1.323,1.789l0.887-0.34l0.88-0.998l0.776-0.673l1.322-0.887l1.885-1.56
	l0.213,0.111l-0.547,0.443l-1.219,2.565l-1.988,2.225l0.111,0.45l0.443-1.116l0.88-0.783l0.776-0.998l0.887-0.783l0.879-1.117
	l0.332-0.443l-0.11,1.116v0.998l-0.657,1.005l-0.666,1.559v2.565l0.223,2.453l0.769,1.227l0.665,1.108l0.887,0.562l0.334,0.665
	l0.657,1.899l0.776,1.45h1.544l0.444-1.227l0.775-1.56l0.555-1.899l-0.11-1.671l-0.443-2.003l0.556-0.45v-1.67l-0.556-2.565
	l-0.333-0.443h1.213l-0.548-2.225l-0.333-1.006l-0.333-1.337l-0.442-1.449l0.332-0.111l0.888,0.999l0.657,0.562l0.888,1.005
	l0.776,0.886l1.102,0.784l1.107,1.116l0.99,0.554l0.998,1.338l0.776,0.666l1.103,1.005l0.887,1.005l0.99,0.888l0.998,1.337
	l0.887,0.562l0.99,0.887l0.998,1.448l0.657,0.451l0.998,1.448l0.776,0.333l0.99,1.005l1.877,2.336l0.998,0.784l1.322,1.227
	l0.776,0.894l0.776,0.776l1.211,1.005l0.998,1.116l0.555,0.999l0.77,0.562l0.221,1.448l-0.879,1.116l-1.107,0.554l-0.998,0.777
	l-1.434,2.12v0.895l1.219-0.784l1.436-1.005l0.774-0.998l0.657-1.337l0.888-0.562l-0.11,0.782l-0.775,1.117v2.897l0.109,1.448
	l0.334,1.449l0.555,1.56l0.111-1.449v-3.118l0.109-2.565l0.222-1.449l0.554-0.783l0.77,0.222l0.889,1.337l1.211,1.005l0.666,0.895
	l1.219,0.887l0.879,0.894l1.109,1.338l0.657,0.554l0.998,0.894l1.212,1.227l1.221,1.005l0.775,0.222l0.88,0.887l0.886,1.116
	l0.99,0.554l0.889,1.337l1.545,0.784L219.563,92.876z"/>
<path fill="#EDE4C6" d="M165.799,90.651l-0.334,0.222l-0.11,0.332l0.444-0.11l0.221-0.333l-0.111-0.111H165.799L165.799,90.651z
	 M169.776,86.75l-0.223,0.554l-0.11,0.34l0.222,0.222l0.443-0.111l0.111-0.45l0.222-0.443l-0.111-0.222L169.776,86.75z
	 M171.653,85.411v0.222l0.221,0.111l0.555-0.111l0.223-0.443l-0.555-0.111L171.653,85.411z M170.663,83.963l-0.111,0.11l-0.11,0.333
	l0.222,0.451l0.221-0.451l-0.11-0.333L170.663,83.963z M174.195,81.849l-0.222,0.11l-0.104,0.111l0.214,0.222l0.111,0.221
	l0.333-0.11v-0.221L174.195,81.849z M175.969,79.173h-0.223v0.333l0.223,0.11l0.222-0.11v-0.111L175.969,79.173z M177.846,78.723
	l0.111,0.11h0.11l0.221-0.222l0.222-0.443l-0.553,0.11L177.846,78.723z M217.078,37.599l0.443,0.443l-0.889,4.347h-0.768
	l-0.777-1.338l-1.102,1.338l-1.773,1.566l-0.768,1.331l-0.777,0.894l-0.996,1.117l-1.213,0.776l-0.887,1.005l-0.881,0.444
	l-0.664,1.227l-1.221,0.894l-0.77,1.227l-0.775,0.894l-0.998,0.555l-1.211,1.005l-0.775,1.108l-0.77,0.562l-1.107,1.227l-0.99,1.109
	l-0.666,0.562l-1.877,1.893l-0.998,0.894l-0.887,1.338l-0.99,0.555l-0.998,1.337l-1.767,1.781l-1.108,0.894l-0.769,0.895
	l-0.887,0.666l-1.213,1.005l-0.775,1.226l-1.988,2.003l-0.998,0.895l-0.77,1.116l-0.887,0.443l-0.775,1.227l-1.213,2.564v1.109
	l-1.33,0.118l-1.434,4.116l-1.656-1.448l-0.221,0.229l-0.443,4.234l-1.656-1.005l-0.887,0.666l-0.555,0.783l-1.988,1.781
	l-1.101,2.564l-0.666-0.111l-0.442-1.781l-0.776-0.111l-0.325-0.118l0.325-0.665l-0.548-0.784h-1.662l0.775-0.998l2.209-1.338
	l0.998-0.783l2.1-0.776l0.222-0.562l-1.989-0.777l3.312-1.116l-0.887-2.003l4.752-2.232l1.33-0.783l-0.223-0.554l0.555-0.333
	l2.765-0.894l0.657-0.554l0.998-0.895l0.99-1.449l0.998-0.665l0.665-1.116l1.101-0.673l0.888-0.998l1.103-1.227l0.553-0.672
	l1.22-0.888l0.657-0.894l1.109-1.227l1.102-0.665l0.664-1.338l0.889-0.45l1.211-1.449l0.998-0.776l0.775-1.005l0.99-0.665
	l0.887-0.895l0.77-1.004l0.889-1.227l0.996-0.555l1.104-1.116l0.996-0.666l0.658-1.116l1.109-0.895l1.875-1.892l0.889-0.784
	l0.99-1.338l1.773-2.002l0.77-0.555l1.107-1.338l0.775-0.451l0.879-0.776l1.221-1.337l0.656-0.895l-1.211-0.554l0.223-1.005
	L217.078,37.599z"/>
<g>
	<polygon fill="#EDE4C6" points="48.688,150.793 48.585,149.994 48.37,148.818 48.156,148.021 47.786,147.223 47.358,146.535 
		46.722,145.574 46.19,144.938 45.606,144.295 44.061,143.018 43.366,142.596 42.62,142.167 41.881,141.798 40.817,141.316 
		39.323,140.784 38.525,140.57 37.298,140.305 35.598,139.771 33.788,139.352 32.886,139.188 31.075,139.085 29.745,138.922 
		28.946,138.76 28.57,138.604 27.934,138.287 27.35,137.747 26.922,137.061 26.766,136.365 26.87,135.516 27.239,134.77 
		27.506,134.451 28.148,133.971 28.466,133.814 29.316,133.549 30.225,133.387 31.127,133.334 32.509,133.334 33.891,133.438 
		34.749,133.49 35.968,133.756 36.877,133.971 37.298,134.081 38.096,134.348 38.474,134.502 39.272,134.82 40.07,135.3 
		40.602,135.566 40.972,135.618 41.401,135.464 42.036,134.932 42.62,134.186 44.645,131.523 45.074,130.889 45.658,129.823 
		45.975,129.232 45.975,128.7 45.495,128.229 44.808,127.748 44.061,127.37 43.048,126.786 42.25,126.469 41.452,126.1 
		40.602,125.773 39.693,125.508 38.843,125.242 37.941,125.035 36.131,124.709 35.281,124.606 34.903,124.502 34.106,124.392 
		32.509,124.236 31.659,124.236 30.861,124.288 30.011,124.392 28.836,124.606 27.239,124.82 26.389,124.976 25.17,125.189 
		24.372,125.456 22.775,126.1 21.763,126.684 21.016,127.052 20.321,127.532 19.634,128.064 18.777,128.863 18.244,129.445 
		17.823,130.091 17.446,130.83 16.914,132.005 16.648,132.803 16.441,133.49 16.278,134.288 16.175,135.566 16.116,136.417 
		16.227,138.124 16.382,139.292 16.545,140.09 16.914,141.213 17.239,142.012 17.713,142.811 18.193,143.497 19.102,144.244 
		19.789,144.725 20.587,145.204 21.282,145.678 23.093,146.587 23.891,146.956 24.69,147.223 25.858,147.65 26.707,147.865 
		28.303,148.184 33.359,148.663 34.268,148.818 35.17,149.033 35.968,149.352 36.397,149.514 37.084,150.046 37.35,150.363 
		37.779,151.109 37.882,151.531 37.941,152.439 37.616,153.238 37.35,153.607 36.818,154.141 36.131,154.568 35.333,154.887 
		34.903,154.99 34.054,155.102 30.698,155.314 29.848,155.264 28.629,155.205 27.772,155.05 26.922,154.783 26.123,154.518 
		24.904,153.927 24.157,153.557 23.359,153.128 21.652,151.96 21.068,151.531 20.484,151.428 19.9,151.745 19.368,152.33 
		18.887,152.92 17.979,154.303 17.506,154.887 16.012,156.27 15.48,156.859 15.266,157.127 15,157.6 15.051,157.977 15.48,158.456 
		16.064,159.041 16.707,159.572 17.66,160.318 18.303,160.852 20.004,162.02 20.698,162.447 21.438,162.816 22.236,163.188 
		22.982,163.562 24.157,163.934 24.955,164.199 25.858,164.361 26.655,164.466 27.882,164.576 28.629,164.628 29.797,164.628 
		32.354,164.466 33.573,164.414 34.32,164.361 35.487,164.251 36.286,164.148 37.616,163.934 38.474,163.777 40.07,163.246 
		41.29,162.816 42.036,162.447 42.834,162.02 43.529,161.538 44.593,160.852 45.229,160.26 45.872,159.624 46.404,158.988 
		47.04,158.027 47.409,157.333 47.889,156.27 48.156,155.529 48.422,154.355 48.585,153.505 48.688,152.596 48.74,151.693 	"/>
	<path fill="#EDE4C6" d="M80.484,151.745l-0.532,0.585l-0.85,0.857l-0.643,0.472l-1.168,0.747l-0.747,0.318l-1.175,0.266
		l-0.85,0.111l-1.331,0.104l-0.902-0.053l-1.331-0.162l-0.798-0.155l-1.116-0.377l-0.798-0.317l-0.857-0.422l-0.739-0.48
		l-1.064-0.907l-0.643-0.636l-0.318-0.37l-0.584-0.747l-0.266-0.43l-0.429-0.746l-0.214-0.42l-0.266-0.748l-0.104-0.368l-0.214-0.8
		l-0.052-0.479l-0.163-0.85l-0.052-0.857v-0.799l0.052-0.798l0.059-0.739l0.104-0.746l0.163-0.746l0.155-0.369l0.266-0.799
		l0.48-1.123l0.163-0.318l0.421-0.694l0.583-0.798l0.591-0.637l0.85-0.746l0.747-0.479l1.219-0.636l0.85-0.318l1.39-0.377
		l0.798-0.154l1.168-0.053l0.798-0.059l1.7,0.111l0.857,0.153l0.85,0.267l0.747,0.326l1.382,0.797l0.583,0.474l0.798,0.856
		l0.532,0.584l0.747,0.961l0.428,0.688l0.584,1.177l0.214,0.738l0.318,1.596l0.052,0.857l0.052,0.9v0.902l-0.104,1.278l-0.111,0.798
		l-0.266,1.229l-0.317,0.797l-0.533,1.168l-0.48,0.746L80.484,151.745z M94.054,142.167l-0.163-0.901l-0.104-0.91l-0.318-1.596
		l-0.266-1.219l-0.266-0.747l-0.376-0.799l-0.422-0.695l-0.591-1.063l-0.422-0.688l-0.376-0.693l-0.421-0.695l-0.747-1.006
		l-0.48-0.643l-0.584-0.584l-0.583-0.531l-0.909-0.852l-0.688-0.531l-0.695-0.48l-1.752-1.012l-0.746-0.318l-1.116-0.43
		l-0.798-0.266l-0.798-0.207l-0.857-0.214l-0.901-0.163l-0.902-0.214l-0.909-0.155l-0.901-0.111l-1.279-0.052l-1.596-0.104
		l-1.708,0.104l-2.661,0.318l-0.798,0.163l-2.018,0.37l-0.798,0.214l-0.798,0.266l-0.746,0.267l-1.116,0.481l-0.747,0.368
		l-0.746,0.429l-0.688,0.43l-1.604,1.064l-0.688,0.473l-0.695,0.531l-0.902,0.748l-0.643,0.643l-0.266,0.422l-0.532,0.746
		l-0.739,1.168l-0.429,0.798l-0.214,0.481l-0.369,0.849l-0.377,1.228l-0.318,0.851l-0.266,0.798l-0.266,0.91l-0.214,0.9
		l-0.155,0.908l-0.111,0.902l-0.052,0.961l-0.052,0.9v0.902l0.052,0.908l0.052,0.799l0.163,1.168l0.163,0.799l0.155,0.85
		l0.163,0.798l0.318,1.124l0.798,2.395l0.429,1.064l0.422,0.688l0.532,0.694l0.532,0.636l1.441,1.441l0.584,0.688l0.636,0.694
		l0.694,0.585l0.688,0.531l0.806,0.48l0.798,0.428l1.7,0.74l0.902,0.377l0.857,0.266l2.868,0.953l0.798,0.215l0.747,0.163
		l1.759,0.214l1.811,0.104h2.867l0.909-0.052l0.901-0.161l0.909-0.216l0.851-0.207l0.901-0.266l1.708-0.532l0.798-0.215l1.064-0.43
		l0.747-0.316l0.798-0.43l0.688-0.42l0.961-0.645l0.635-0.473l0.695-0.532l0.584-0.532l0.85-0.908l0.532-0.584l0.532-0.695
		l0.48-0.688l1.434-2.395l0.377-0.747l0.533-1.115l0.214-0.799l0.155-0.856l0.111-0.799l0.104-1.22l0.318-1.597l0.111-0.799
		l0.104-1.227l0.052-0.852L94.054,142.167z"/>
	<polygon fill="#EDE4C6" points="142.48,155.951 142.48,155.102 142.694,152.277 142.694,151.428 142.531,148.604 142.531,147.755 
		142.746,144.938 142.746,144.081 142.531,141.213 142.531,140.355 142.48,137.541 142.48,136.684 142.531,133.867 142.531,133.018 
		142.428,130.193 142.48,129.344 142.694,126.949 142.746,126.307 142.642,125.885 142.317,125.618 141.947,125.508 
		141.312,125.404 140.403,125.353 138.806,125.456 137.956,125.456 135.451,125.404 132.635,125.242 131.94,125.189 
		131.408,125.456 130.986,125.885 130.558,126.469 129.176,128.168 128.644,128.863 126.781,130.939 126.249,131.628 
		124.542,133.704 124.009,134.451 122.413,136.579 121.933,137.111 121.46,137.378 120.927,137.378 120.447,137.111 
		119.915,136.527 118.267,134.451 117.735,133.704 115.975,131.628 115.444,130.939 113.899,128.76 113.366,128.064 
		111.504,125.988 110.972,125.404 110.388,125.138 109.693,125.138 107.675,125.086 106.877,125.138 105.968,125.242 
		104.32,125.404 103.47,125.404 102.295,125.138 101.393,125.035 100.698,125.086 100.277,125.189 99.959,125.456 99.745,125.833 
		99.634,126.521 99.634,127.37 99.848,129.344 99.848,130.193 99.634,133.018 99.582,133.867 99.797,136.684 99.745,137.541 
		99.582,140.355 99.582,141.213 99.745,144.081 99.797,144.938 99.745,147.755 99.745,148.604 99.848,151.428 99.848,159.624 
		99.745,161.271 99.745,162.5 99.848,163.031 99.959,163.4 100.277,163.721 100.913,163.83 102.14,163.83 104.689,163.615 
		105.547,163.562 107.624,163.721 108.474,163.668 109.856,163.512 110.225,163.4 110.44,163.083 110.55,162.389 110.602,161.486 
		110.654,160.639 110.602,159.041 110.602,158.242 110.654,154.938 110.654,154.088 110.55,150.732 110.55,149.883 110.336,146.535 
		110.336,145.678 110.491,142.33 110.602,141.746 110.92,141.635 111.615,142.33 114.379,145.412 114.911,146.055 116.877,148.663 
		119.538,151.855 120.129,152.277 120.765,152.439 121.349,152.544 121.777,152.544 122.147,152.389 122.627,151.96 
		124.756,149.299 128.001,145.412 130.24,142.861 130.772,142.115 131.142,141.635 131.46,141.635 131.785,141.85 131.888,142.484 
		131.888,146.639 131.674,149.936 131.674,150.793 131.837,154.141 131.837,159.145 131.726,160.955 131.785,161.753 131.837,162.5 
		131.888,163.031 132.103,163.298 132.472,163.4 134.445,163.668 135.399,163.721 136.729,163.721 137.638,163.777 139.767,163.934 
		140.617,163.934 141.415,163.881 141.999,163.777 142.317,163.512 142.583,163.083 142.642,162.5 142.694,162.07 142.642,161.271 
		142.428,159.624 142.376,158.773 	"/>
	<polygon fill="#EDE4C6" points="180.654,155.686 180.602,155.102 180.388,154.783 180.07,154.621 178.154,154.406 177.357,154.355 
		176.559,154.355 172.783,154.568 171.925,154.568 168.148,154.355 165.273,154.568 164.423,154.568 161.497,154.458 
		160.913,154.406 160.697,154.191 160.543,153.822 160.484,153.29 160.484,152.123 160.543,151.266 160.697,149.936 160.75,149.137 
		160.913,148.768 161.179,148.604 161.814,148.553 162.723,148.501 164.852,148.663 165.701,148.663 169.109,148.768 
		173.365,148.501 174.216,148.553 176.611,148.818 177.675,148.818 178.208,148.715 178.585,148.449 178.792,148.073 
		178.902,147.438 179.006,145.841 178.902,144.613 178.902,142.861 178.852,141.952 178.738,141.052 178.688,140.467 
		178.525,140.148 178.208,139.884 177.624,139.771 175.977,139.668 170.011,139.986 164.955,139.986 163.256,140.09 
		161.548,139.986 160.965,139.824 160.75,139.559 160.646,139.188 160.595,138.604 160.543,137.695 160.543,136.846 
		160.646,135.566 160.75,134.982 160.809,134.665 161.074,134.398 161.607,134.288 162.027,134.236 162.826,134.236 
		165.221,134.398 167.992,134.502 168.843,134.502 171.556,134.398 172.404,134.398 177.408,134.502 178.259,134.451 
		178.688,134.451 179.322,134.348 179.59,134.133 179.804,133.756 179.915,133.12 179.966,132.322 179.915,131.523 179.855,130.193 
		179.855,129.292 179.966,127.961 179.966,126.521 179.855,125.833 179.752,125.456 179.436,125.189 178.688,125.035 
		177.357,125.035 175.547,125.189 174.645,125.242 167.402,125.138 166.552,125.138 163.359,125.353 162.509,125.353 
		159.316,125.138 158.466,125.138 155.215,125.189 151.755,124.976 151.068,125.086 150.639,125.138 150.373,125.353 
		150.218,125.773 150.158,126.521 150.004,129.292 150.004,130.091 149.893,131.688 149.893,132.957 149.951,133.814 
		150.107,136.631 150.158,137.48 149.951,140.305 149.951,144.828 149.841,147.703 149.893,148.553 150.055,151.376 
		150.107,152.227 150.055,155.05 150.055,155.898 149.841,158.723 149.841,159.521 149.789,160.318 149.841,161.169 
		149.951,162.389 150.055,162.98 150.218,163.35 150.588,163.615 151.223,163.721 153.033,163.83 157.615,163.562 158.466,163.562 
		161.23,163.777 164.904,163.777 165.754,163.721 168.525,163.512 169.375,163.452 172.191,163.668 173.049,163.668 
		180.018,163.452 180.283,163.246 180.499,162.869 180.55,162.337 180.765,159.462 180.816,158.611 	"/>
	<polygon fill="#EDE4C6" points="218.199,127.695 218.141,126.896 218.141,126.521 218.038,125.885 217.771,125.508 
		217.402,125.301 216.759,125.189 216.338,125.138 215.428,125.086 213.677,125.189 209.736,125.189 205.746,125.242 
		204.889,125.242 201.807,125.189 197.867,125.456 197.017,125.456 193.876,125.189 193.027,125.189 189.938,125.404 
		189.087,125.404 187.113,125.242 185.895,125.242 185.361,125.353 185.044,125.508 184.83,125.885 184.667,126.572 184.615,127.43 
		184.777,129.445 184.777,130.245 184.667,131.842 184.719,132.691 184.719,133.068 184.83,133.602 185.044,133.919 
		185.361,134.133 185.945,134.236 186.375,134.288 187.173,134.288 188.392,134.236 189.301,134.186 190.203,134.236 
		191.637,134.348 192.598,134.348 194.305,134.236 195.104,134.236 195.636,134.348 195.791,134.77 195.791,135.516 
		195.902,138.656 195.902,142.699 195.953,143.549 196.167,146.742 196.167,147.6 196.109,150.732 196.109,151.591 196.057,154.783 
		196.057,158.773 196.005,159.624 195.842,161.855 195.842,162.766 195.953,163.35 196.271,163.512 196.906,163.562 
		199.302,163.721 200.158,163.721 202.553,163.562 203.455,163.615 204.785,163.777 205.798,163.83 206.486,163.721 
		206.752,163.452 206.914,162.816 206.861,161.967 206.597,159.572 206.544,158.773 206.648,155.634 206.648,150.732 206.544,147.6 
		206.597,146.742 206.811,143.549 206.861,142.699 206.648,139.506 206.648,138.656 206.861,135.516 206.914,134.82 
		207.128,134.502 207.66,134.348 208.029,134.288 208.828,134.288 210.158,134.398 211.017,134.398 213.462,134.236 
		214.312,134.288 215.908,134.451 216.759,134.451 217.402,134.348 217.72,134.081 217.875,133.704 217.986,133.068 
		218.038,132.641 218.089,131.789 218.038,130.193 218.089,129.396 	"/>
	<polygon fill="#EDE4C6" points="259.25,155.05 259.301,152.227 259.301,151.376 259.25,148.553 259.25,147.703 259.354,144.88 
		259.354,144.029 259.568,141.213 259.568,140.355 259.354,137.541 259.354,136.684 259.464,133.867 259.464,133.018 
		259.301,130.193 259.354,129.344 259.516,127.215 259.516,126.417 259.301,125.67 258.881,125.242 258.186,125.138 
		257.705,125.138 256.855,125.086 254.46,125.242 253.611,125.242 250.736,125.086 249.886,125.086 249.242,125.189 248.82,125.67 
		248.658,126.521 248.711,129.979 248.711,130.83 248.82,134.288 248.82,135.146 248.607,138.604 248.555,139.188 248.341,139.616 
		247.757,139.936 247.38,139.986 246.581,139.986 243.441,139.771 240.041,139.668 239.242,139.721 237.217,140.038 
		236.471,140.038 235.725,139.986 235.191,139.936 234.926,139.721 234.771,139.292 234.719,138.656 234.719,134.288 
		234.771,130.83 234.822,129.979 234.986,127.585 234.986,126.786 234.926,126.417 234.719,125.723 234.29,125.301 233.595,125.189 
		232.797,125.138 231.947,125.138 229.818,125.301 228.969,125.301 226.73,125.189 225.932,125.189 225.133,125.242 
		224.445,125.404 223.965,125.773 223.751,126.417 223.751,127.532 224.018,129.344 224.068,130.193 224.128,133.018 
		224.068,133.867 223.913,136.684 223.861,137.541 223.861,141.213 223.913,144.029 223.913,144.88 224.068,147.703 
		224.068,148.553 224.018,151.376 224.018,152.227 223.913,155.05 223.913,159.521 223.802,161.117 223.802,161.967 
		223.861,162.447 223.965,163.031 224.179,163.298 224.601,163.512 225.193,163.615 225.613,163.615 226.463,163.668 
		228.969,163.512 229.818,163.562 232.058,163.777 232.857,163.83 233.654,163.777 234.342,163.615 234.822,163.188 
		235.037,162.447 235.037,161.221 234.822,158.93 234.771,158.079 234.874,154.621 234.874,153.771 234.822,150.363 
		234.874,149.617 235.14,149.137 235.619,148.98 236.316,148.93 239.184,149.085 243.441,149.195 244.298,149.137 246.426,148.98 
		247.704,148.98 248.289,149.195 248.503,149.617 248.503,150.363 248.607,153.771 248.607,154.621 248.503,158.079 248.555,158.93 
		248.77,162.389 248.872,163.135 249.191,163.562 249.938,163.721 250.785,163.721 253.611,163.512 254.46,163.512 257.336,163.668 
		258.186,163.562 258.77,163.512 259.146,163.135 259.412,162.447 259.464,161.701 259.412,160.902 259.301,159.572 259.25,158.723 
			"/>
	<polygon fill="#EDE4C6" points="277.527,152.277 277.527,147.65 277.638,144.775 277.638,143.926 277.587,141.052 277.587,140.201 
		277.638,137.273 277.638,136.417 277.587,133.549 277.587,128.331 277.527,127.48 277.424,126.1 277.372,125.508 277.261,125.189 
		276.678,125.086 273.381,125.086 270.927,125.189 270.076,125.189 268.799,125.138 268.001,125.189 267.579,125.189 
		267.047,125.242 266.729,125.456 266.566,126.04 266.67,128.967 266.67,133.549 266.617,136.417 266.617,137.273 266.67,140.201 
		266.67,144.775 266.729,147.65 266.729,148.501 266.885,151.428 266.833,152.277 266.67,155.152 266.617,156.003 266.781,158.878 
		266.781,159.676 266.833,160.475 266.833,161.324 266.938,162.654 266.938,163.188 267.099,163.35 267.416,163.452 
		270.076,163.668 273.381,163.668 276.094,163.721 276.84,163.668 277.261,163.512 277.424,163.246 277.424,162.654 
		277.477,159.729 277.477,158.878 277.689,156.003 277.689,155.152 	"/>
	<polygon fill="#EDE4C6" points="321.395,130.408 321.497,129.559 321.607,127.902 321.555,127.001 321.497,126.521 
		321.395,125.773 321.074,125.404 320.697,125.242 320.113,125.138 318.895,125.086 318.097,125.035 316.285,125.138 
		315.436,125.138 313.041,124.976 312.132,125.035 311.652,125.035 311.016,125.138 310.646,125.353 310.433,125.773 
		310.27,126.469 310.27,127.799 310.433,129.766 310.484,130.622 310.27,133.867 310.27,134.717 310.484,137.962 310.484,138.818 
		310.32,141.104 310.381,141.952 310.75,144.191 310.75,144.775 310.381,145.042 309.951,144.99 309.523,144.613 307.609,141.952 
		307.076,141.316 305.052,138.76 304.579,138.124 302.656,135.464 302.125,134.82 300.158,132.219 299.626,131.576 297.66,129.025 
		297.129,128.383 294.889,125.988 294.57,125.508 294.305,125.301 293.669,125.242 289.672,125.242 288.074,125.138 
		286.479,125.242 285.895,125.353 285.576,125.508 285.414,125.885 285.311,126.469 285.206,127.268 285.148,128.064 
		285.148,129.292 285.206,130.143 285.414,133.018 285.473,133.867 285.259,136.684 285.259,137.541 285.473,140.355 
		285.473,144.029 285.414,144.88 285.259,147.703 285.206,148.553 285.096,155.05 285.096,155.898 285.259,158.723 285.206,159.572 
		285.096,161.324 285.096,162.123 285.148,162.5 285.259,163.031 285.473,163.4 285.895,163.668 286.479,163.777 287.277,163.83 
		288.134,163.83 290.314,163.721 291.164,163.721 293.611,163.777 294.52,163.721 294.941,163.668 295.584,163.562 295.954,163.452 
		296.33,163.083 296.486,162.389 296.434,161.538 296.115,159.41 296.064,158.561 296.22,155.581 296.22,154.725 296.167,151.745 
		296.167,150.896 296.115,148.234 296.115,147.385 296.22,144.725 296.383,144.081 296.752,143.926 297.232,144.348 
		299.197,146.956 299.73,147.6 301.808,150.148 302.287,150.793 304.15,153.557 304.63,154.251 306.707,156.801 307.238,157.443 
		309.316,160.053 309.789,160.74 310.587,162.285 311.068,162.98 311.711,163.452 312.347,163.721 313.041,163.881 313.892,163.881 
		315.222,163.83 316.07,163.777 318.783,163.668 319.529,163.615 320.011,163.452 320.543,163.083 320.965,162.5 321.179,161.855 
		321.23,161.117 321.179,158.027 321.342,155.471 321.395,154.568 321.443,154.141 321.443,153.238 321.342,146.21 321.342,145.359 
		321.179,142.277 321.179,134.398 321.23,133.549 	"/>
	<polygon fill="#EDE4C6" points="364.896,141.369 364.734,140.623 364.63,140.305 364.253,140.09 363.455,139.936 363.033,139.884 
		362.177,139.936 359.996,140.201 359.146,140.201 354.889,139.936 351.43,140.09 348.984,140.09 348.074,140.148 346.744,140.305 
		346.109,140.415 345.842,140.682 345.68,141.266 345.68,142.381 345.791,143.18 345.895,144.775 345.842,146.105 345.895,146.956 
		345.945,147.385 346.057,148.021 346.264,148.286 346.589,148.396 348.393,148.715 349.25,148.768 350.47,148.768 351.318,148.715 
		352.546,148.553 353.396,148.501 354.675,148.501 355.259,148.604 355.473,148.93 355.473,149.831 355.584,151.428 
		355.584,152.227 355.525,152.707 355.525,153.29 355.369,153.607 354.837,153.984 354.039,154.355 353.189,154.673 
		350.314,155.367 349.516,155.529 348.658,155.634 347.809,155.634 346.906,155.581 345.997,155.471 344.402,155.102 
		343.604,154.783 342.539,154.191 341.852,153.659 340.891,152.759 340.359,152.123 339.723,151.162 339.346,150.416 
		338.814,149.137 338.547,148.286 338.281,147.066 338.126,146.21 338.016,144.938 338.016,144.029 338.074,143.127 338.23,142.277 
		338.547,140.682 338.762,139.884 339.027,139.025 339.346,138.229 339.775,137.48 340.255,136.794 340.787,136.1 341.371,135.516 
		342.066,134.982 342.753,134.502 344.35,133.756 345.199,133.549 346.589,133.438 347.439,133.387 347.809,133.387 
		350.314,133.549 351.216,133.704 352.124,133.919 352.975,134.236 353.824,134.613 354.57,135.035 355.259,135.464 
		355.953,135.943 356.537,136.312 356.966,136.262 357.283,136.047 357.713,135.729 358.297,135.3 358.932,134.77 359.893,133.919 
		361.378,132.426 361.91,131.842 362.391,131.154 362.709,130.674 362.871,130.297 362.871,129.928 362.554,129.559 
		362.236,129.292 361.645,128.863 361.378,128.598 360.795,128.168 360.211,127.799 359.943,127.637 359.25,127.163 
		358.451,126.684 356.537,125.723 355.738,125.456 354.57,125.086 353.773,124.872 352.598,124.658 351.851,124.502 350.632,124.34 
		349.834,124.288 348.658,124.177 347.809,124.236 346.589,124.34 345.791,124.443 344.992,124.606 343.447,124.82 341.475,125.138 
		340.624,125.353 339.723,125.618 338.814,125.988 338.016,126.469 336.264,127.48 335.619,127.902 334.986,128.383 334.29,128.915 
		332.908,130.091 332.273,130.674 331.682,131.311 331.098,132.005 330.617,132.641 329.93,133.602 329.553,134.348 
		329.183,135.249 328.814,136.1 328.548,136.896 328.281,137.747 328.015,138.656 327.749,139.506 327.535,140.415 327.373,141.316 
		327.27,141.746 327.107,144.141 327.107,144.938 327.158,145.736 327.27,146.587 327.484,147.755 327.587,148.604 327.749,149.514 
		327.904,150.363 328.171,151.266 328.438,152.123 328.814,152.92 329.183,153.771 330.514,156.165 330.994,156.912 331.578,157.71 
		332.109,158.346 332.96,159.195 333.544,159.729 334.188,160.209 334.822,160.74 335.518,161.221 336.152,161.701 337.217,162.285 
		337.912,162.654 338.976,163.031 339.775,163.298 340.572,163.512 342.436,164.044 343.234,164.251 344.083,164.414 
		344.934,164.518 346.16,164.628 347.809,164.73 348.607,164.68 350.736,164.414 351.533,164.251 352.279,164.148 353.507,163.984 
		354.305,163.83 355.154,163.668 355.953,163.452 357.181,163.083 357.92,162.816 358.717,162.5 359.781,161.967 360.477,161.538 
		360.847,161.324 361.541,160.852 361.859,160.525 362.502,159.941 363.402,159.041 363.884,158.346 364.305,157.658 
		364.63,157.127 364.682,156.535 364.682,153.395 364.785,151.162 364.785,146.158 365,142.699 364.947,141.798 	"/>
	<path fill="#EDE4C6" d="M135.451,192.646h-0.85l-2.764-0.213l-0.643-0.104l-0.369-0.162l-0.111-0.317l-0.052-0.584l0.111-2.927
		l-0.059-0.909l-0.104-0.902l-0.104-0.856l-0.059-1.22l0.059-0.583l0.318-0.325l0.369-0.154l0.643-0.054l2.712-0.162h0.85
		l2.661,0.052l0.85,0.11l1.175,0.267l0.739,0.318l0.591,0.48l0.473,0.636l0.377,0.798l0.214,0.799l0.104,0.9l0.052,0.908
		l-0.052,0.852l-0.214,0.852l-0.37,0.797l-0.532,0.644l-0.643,0.369l-0.688,0.267l-1.175,0.215L135.451,192.646z M155.303,212.439
		l-0.266-0.584l-0.48-0.582l-1.648-1.916l-0.531-0.644l-1.914-2.659l-0.533-0.637l-1.914-2.609l-0.48-0.636l-1.913-2.719
		l-0.214-0.422l0.42-0.162l0.695-0.155l0.694-0.377l0.636-0.369l1.064-0.585l0.584-0.479l0.85-0.85l0.48-0.593l0.48-0.635
		l0.479-0.695l0.479-0.798l0.37-0.799l0.318-0.799l0.214-0.85l0.163-0.902l0.103-0.907l0.053-0.851v-0.851l-0.104-1.175
		l-0.052-0.852l-0.163-0.851l-0.267-0.851l-0.369-0.797l-0.377-0.748l-0.637-1.012l-0.479-0.688l-0.747-1.065l-0.532-0.644
		l-0.532-0.531l-0.584-0.479l-1.01-0.686l-0.688-0.43l-0.799-0.368l-0.856-0.317l-0.798-0.324l-0.799-0.268l-1.115-0.316
		l-0.798-0.156l-0.902-0.059h-2.025l-3.511-0.207h-0.85l-3.622,0.207l-6.334-0.207l-2.395-0.111l-0.798,0.054l-0.429,0.058
		l-0.636,0.155l-0.317,0.429l-0.163,0.688l-0.051,0.325l-0.052,0.799l0.104,1.751v0.851l0.052,2.875v0.85l-0.103,2.824v0.851
		l-0.163,2.875v0.85l0.163,2.875v0.851l-0.163,2.875v0.851l0.06,2.823l0.051,0.851l0.155,2.874v0.852l-0.207,2.875l-0.06,0.851
		l-0.104,1.39l0.052,0.799l0.051,0.738l0.111,0.531l0.318,0.215l0.636,0.11l2.454,0.155h0.85l2.447-0.155l2.557,0.155h0.85
		l0.583-0.155l0.266-0.267l0.111-0.644l0.052-0.849v-0.852l-0.052-1.279l-0.059-0.85l-0.207-2.979l-0.059-0.857l0.111-2.927
		l0.155-0.688l0.429-0.324l0.695-0.053l1.7,0.111l0.635,0.052l0.325,0.155l0.37,0.429l1.7,2.291l0.48,0.636l1.493,2.446l0.48,0.644
		l1.7,2.283l0.481,0.645l1.7,2.395l0.43,0.42l0.479,0.217h0.688l2.395-0.104h0.857l2.927,0.052h3.726l0.687-0.214L155.303,212.439z"
		/>
	<path fill="#EDE4C6" d="M182.553,197.171l-0.421,0.422l-0.694,0.214l-2.507-0.156h-3.348l-0.747-0.109l-0.583-0.266l-0.163-0.637
		l0.163-0.799l1.382-3.568l0.318-0.799l1.441-3.615l0.531-0.53l0.584-0.163l0.688,0.163l0.531,0.368l0.266,0.695l1.064,3.142
		l0.266,0.798l1.176,3.615l0.214,0.693L182.553,197.171z M199.427,208.98l-1.44-3.349l-0.369-0.745l-1.279-2.506l-1.646-3.297
		l-0.317-0.746l-1.065-2.661l-0.324-0.745l-1.168-2.604l-0.316-0.746l-1.176-2.559l-0.318-0.746l-0.954-2.711l-0.325-0.748
		l-1.166-2.608l-0.318-0.737l-1.332-2.508l-0.317-0.798l-0.746-2.076l-0.266-0.688l-0.584-0.428l-0.909-0.156l-2.446-0.06h-4.153
		l-2.446,0.111l-0.798,0.153l-0.532,0.326l-0.267,0.584l-0.961,2.182l-0.316,0.798l-1.014,2.446l-0.369,0.85l-1.168,2.396
		l-0.377,0.856l-1.485,3.192l-1.922,4.359l-0.317,0.747l-1.434,2.979l-0.325,0.798l-1.22,2.875l-0.322,0.801l-1.389,2.979
		l-0.318,0.746l-1.331,2.979l-0.317,0.798l-0.746,1.656l-0.318,0.851l-0.104,0.422l-0.06,0.693l0.429,0.584l0.635,0.318l0.695-0.053
		l3.297-0.215h0.856l3.082,0.162l0.856,0.053l0.799-0.317l0.584-0.694l0.316-0.851l1.227-3.614l0.318-0.643l0.422-0.268l0.694-0.104
		h2.446l0.798-0.051h0.798l3.193,0.051l3.99,0.104h0.858l3.192,0.215l0.636,0.053l0.479,0.109l0.371,0.532l1.647,4.465l0.267,0.591
		l0.324,0.422l0.688,0.213l3.305-0.213h2.395l0.799,0.053l1.22,0.109h0.745l0.695-0.109l0.584-0.268l0.369-0.584l-0.154-0.746
		L199.427,208.98z"/>
	<polygon fill="#EDE4C6" points="216.922,201.798 216.922,197.171 217.031,194.295 217.031,193.445 216.98,190.57 216.98,189.721 
		217.031,186.793 217.031,185.938 216.98,183.068 216.98,177.852 216.922,177 216.818,175.619 216.767,175.025 216.654,174.709 
		216.072,174.605 212.775,174.605 210.32,174.709 209.472,174.709 208.193,174.657 207.395,174.709 206.973,174.709 
		206.441,174.762 206.123,174.977 205.961,175.561 206.064,178.486 206.064,183.068 206.013,185.938 206.013,186.793 
		206.064,189.721 206.064,194.295 206.123,197.171 206.123,198.021 206.279,200.947 206.227,201.798 206.064,204.672 
		206.013,205.521 206.175,208.396 206.175,209.195 206.227,209.994 206.227,210.844 206.33,212.175 206.33,212.706 206.492,212.869 
		206.811,212.973 209.472,213.188 212.775,213.188 215.486,213.238 216.234,213.188 216.654,213.031 216.818,212.766 
		216.818,212.175 216.869,209.248 216.869,208.396 217.084,205.521 217.084,204.672 	"/>
	<polygon fill="#EDE4C6" points="260.787,179.928 260.891,179.077 261.001,177.422 260.949,176.521 260.891,176.04 260.787,175.293 
		260.469,174.924 260.092,174.762 259.509,174.657 258.288,174.605 257.49,174.555 255.68,174.657 254.83,174.657 252.436,174.496 
		251.525,174.555 251.046,174.555 250.408,174.657 250.04,174.872 249.826,175.293 249.663,175.988 249.663,177.318 
		249.826,179.284 249.878,180.143 249.663,183.387 249.663,184.236 249.878,187.48 249.878,188.339 249.715,190.622 
		249.775,191.473 250.145,193.712 250.145,194.295 249.775,194.562 249.346,194.51 248.917,194.133 247.003,191.473 246.47,190.837 
		244.445,188.279 243.973,187.645 242.051,184.982 241.52,184.34 239.553,181.738 239.02,181.096 237.055,178.546 236.523,177.902 
		234.283,175.508 233.965,175.025 233.699,174.82 233.064,174.762 229.066,174.762 227.469,174.657 225.872,174.762 
		225.287,174.872 224.97,175.025 224.808,175.404 224.704,175.988 224.601,176.786 224.541,177.585 224.541,178.812 
		224.601,179.661 224.808,182.536 224.867,183.387 224.652,186.203 224.652,187.061 224.867,189.875 224.867,193.549 
		224.808,194.398 224.652,197.223 224.601,198.072 224.49,204.568 224.49,205.419 224.652,208.242 224.601,209.092 224.49,210.844 
		224.49,211.643 224.541,212.02 224.652,212.551 224.867,212.921 225.287,213.188 225.872,213.298 226.67,213.35 227.527,213.35 
		229.708,213.238 230.558,213.238 233.005,213.298 233.913,213.238 234.334,213.188 234.979,213.083 235.348,212.973 
		235.725,212.604 235.879,211.908 235.826,211.059 235.51,208.93 235.458,208.08 235.613,205.102 235.613,204.244 235.562,201.266 
		235.562,200.415 235.51,197.754 235.51,196.904 235.613,194.243 235.777,193.602 236.146,193.445 236.626,193.866 238.591,196.477 
		239.124,197.119 241.201,199.668 241.682,200.312 243.544,203.076 244.025,203.771 246.101,206.32 246.633,206.964 
		248.711,209.572 249.183,210.26 249.98,211.805 250.462,212.5 251.105,212.973 251.74,213.238 252.436,213.4 253.285,213.4 
		254.615,213.35 255.465,213.298 258.178,213.188 258.925,213.135 259.404,212.973 259.938,212.604 260.359,212.02 260.572,211.376 
		260.624,210.637 260.572,207.547 260.736,204.99 260.787,204.089 260.839,203.66 260.839,202.758 260.736,195.729 260.736,194.879 
		260.572,191.797 260.572,183.919 260.624,183.068 	"/>
</g>
</svg>
